<svg width="420" height="230" viewBox="0 0 420 230" fill="none" xmlns="http://www.w3.org/2000/svg">
<path d="M19.932 212.192C19.204 212.192 18.556 212.052 17.988 211.772C17.428 211.492 16.988 211.104 16.668 210.608C16.356 210.112 16.2 209.544 16.2 208.904V203.096C16.2 202.96 16.244 202.848 16.332 202.76C16.42 202.672 16.532 202.628 16.668 202.628C16.804 202.628 16.916 202.672 17.004 202.76C17.092 202.848 17.136 202.96 17.136 203.096V208.904C17.136 209.376 17.252 209.792 17.484 210.152C17.724 210.512 18.056 210.796 18.48 211.004C18.904 211.204 19.388 211.304 19.932 211.304C20.468 211.304 20.944 211.204 21.36 211.004C21.776 210.796 22.1 210.512 22.332 210.152C22.572 209.792 22.692 209.376 22.692 208.904V203.096C22.692 202.96 22.736 202.848 22.824 202.76C22.912 202.672 23.024 202.628 23.16 202.628C23.304 202.628 23.416 202.672 23.496 202.76C23.584 202.848 23.628 202.96 23.628 203.096V208.904C23.628 209.544 23.468 210.112 23.148 210.608C22.836 211.104 22.4 211.492 21.84 211.772C21.288 212.052 20.652 212.192 19.932 212.192ZM28.912 212.12C28.144 212.12 27.464 211.956 26.872 211.628C26.288 211.3 25.872 210.864 25.624 210.32C25.56 210.192 25.556 210.076 25.612 209.972C25.676 209.86 25.78 209.784 25.924 209.744C26.036 209.712 26.144 209.724 26.248 209.78C26.36 209.836 26.444 209.92 26.5 210.032C26.684 210.384 26.988 210.672 27.412 210.896C27.836 211.12 28.336 211.232 28.912 211.232C29.544 211.232 30.064 211.08 30.472 210.776C30.888 210.464 31.096 210.016 31.096 209.432C31.096 208.944 30.916 208.524 30.556 208.172C30.196 207.82 29.632 207.596 28.864 207.5C27.928 207.388 27.196 207.1 26.668 206.636C26.14 206.164 25.876 205.588 25.876 204.908C25.876 204.42 26.004 203.996 26.26 203.636C26.524 203.276 26.884 203 27.34 202.808C27.796 202.608 28.32 202.508 28.912 202.508C29.576 202.508 30.144 202.66 30.616 202.964C31.088 203.26 31.452 203.612 31.708 204.02C31.788 204.148 31.812 204.272 31.78 204.392C31.756 204.512 31.688 204.604 31.576 204.668C31.456 204.724 31.332 204.732 31.204 204.692C31.084 204.652 30.992 204.576 30.928 204.464C30.744 204.184 30.492 203.94 30.172 203.732C29.86 203.516 29.436 203.404 28.9 203.396C28.268 203.396 27.76 203.532 27.376 203.804C26.992 204.068 26.8 204.456 26.8 204.968C26.8 205.376 26.964 205.732 27.292 206.036C27.628 206.34 28.22 206.552 29.068 206.672C30.068 206.816 30.808 207.124 31.288 207.596C31.776 208.06 32.02 208.668 32.02 209.42C32.02 209.996 31.88 210.488 31.6 210.896C31.328 211.296 30.956 211.6 30.484 211.808C30.012 212.016 29.488 212.12 28.912 212.12ZM36.4973 213.188C36.4093 213.188 36.3333 213.156 36.2693 213.092C36.2133 213.036 36.1853 212.956 36.1853 212.852V212.12C35.5293 212.088 34.9493 211.92 34.4453 211.616C33.9413 211.312 33.5813 210.908 33.3653 210.404C33.3093 210.276 33.3053 210.16 33.3533 210.056C33.4093 209.944 33.5053 209.872 33.6413 209.84C33.7453 209.808 33.8453 209.82 33.9413 209.876C34.0453 209.924 34.1213 210.004 34.1693 210.116C34.3133 210.436 34.5653 210.7 34.9253 210.908C35.2853 211.108 35.7053 211.224 36.1853 211.256V207.56C35.4093 207.424 34.7933 207.132 34.3373 206.684C33.8813 206.236 33.6533 205.68 33.6533 205.016C33.6533 204.568 33.7613 204.18 33.9773 203.852C34.2013 203.516 34.5013 203.252 34.8773 203.06C35.2613 202.868 35.6973 202.752 36.1853 202.712V202.136C36.1853 202.024 36.2133 201.94 36.2693 201.884C36.3333 201.828 36.4093 201.8 36.4973 201.8C36.5773 201.8 36.6453 201.828 36.7013 201.884C36.7653 201.94 36.7973 202.024 36.7973 202.136V202.712C37.3653 202.752 37.8493 202.912 38.2493 203.192C38.6573 203.472 38.9653 203.8 39.1733 204.176C39.2453 204.304 39.2693 204.428 39.2453 204.548C39.2293 204.66 39.1653 204.744 39.0533 204.8C38.9573 204.864 38.8493 204.876 38.7293 204.836C38.6173 204.796 38.5293 204.724 38.4653 204.62C38.3213 204.364 38.1173 204.136 37.8533 203.936C37.5893 203.728 37.2373 203.604 36.7973 203.564V206.864C37.6453 207.016 38.2933 207.32 38.7413 207.776C39.1973 208.232 39.4253 208.816 39.4253 209.528C39.4253 210.04 39.3093 210.48 39.0773 210.848C38.8453 211.216 38.5293 211.508 38.1293 211.724C37.7373 211.932 37.2933 212.06 36.7973 212.108V212.852C36.7973 212.956 36.7653 213.036 36.7013 213.092C36.6453 213.156 36.5773 213.188 36.4973 213.188ZM34.5533 205.04C34.5533 205.28 34.6013 205.512 34.6973 205.736C34.7933 205.96 34.9573 206.16 35.1893 206.336C35.4293 206.512 35.7613 206.652 36.1853 206.756V203.564C35.6893 203.604 35.2933 203.748 34.9973 203.996C34.7013 204.236 34.5533 204.584 34.5533 205.04ZM38.5013 209.552C38.5093 209.104 38.3733 208.712 38.0933 208.376C37.8133 208.04 37.3813 207.804 36.7973 207.668V211.244C37.3013 211.18 37.7093 211.004 38.0213 210.716C38.3413 210.428 38.5013 210.04 38.5013 209.552ZM43.3692 212C42.4732 212 41.7772 211.584 41.2812 210.752C40.7932 209.92 40.5492 208.768 40.5492 207.296C40.5492 206.328 40.6572 205.492 40.8732 204.788C41.0972 204.084 41.4212 203.544 41.8452 203.168C42.2692 202.792 42.7772 202.604 43.3692 202.604C43.9772 202.604 44.4892 202.796 44.9052 203.18C45.3292 203.556 45.6492 204.096 45.8652 204.8C46.0892 205.504 46.2012 206.336 46.2012 207.296C46.2012 208.272 46.0892 209.112 45.8652 209.816C45.6492 210.512 45.3292 211.052 44.9052 211.436C44.4892 211.812 43.9772 212 43.3692 212ZM43.3692 211.064C43.8012 211.064 44.1572 210.904 44.4372 210.584C44.7172 210.256 44.9252 209.808 45.0612 209.24C45.1972 208.672 45.2652 208.024 45.2652 207.296C45.2652 206.576 45.1932 205.936 45.0492 205.376C44.9132 204.808 44.7052 204.36 44.4252 204.032C44.1452 203.704 43.7932 203.54 43.3692 203.54C42.9452 203.54 42.5932 203.704 42.3132 204.032C42.0412 204.352 41.8332 204.796 41.6892 205.364C41.5532 205.932 41.4852 206.576 41.4852 207.296C41.4852 208.032 41.5532 208.684 41.6892 209.252C41.8332 209.812 42.0412 210.256 42.3132 210.584C42.5932 210.904 42.9452 211.064 43.3692 211.064Z" fill="#424242"/>
<path d="M79.32 225C79.192 225 79.08 224.956 78.984 224.868C78.896 224.78 78.852 224.668 78.852 224.532C78.852 224.412 78.896 224.304 78.984 224.208L82.62 219.912C82.82 219.696 82.98 219.456 83.1 219.192C83.22 218.92 83.28 218.668 83.28 218.436C83.28 217.876 83.116 217.416 82.788 217.056C82.46 216.696 82.036 216.516 81.516 216.516C81.18 216.516 80.872 216.604 80.592 216.78C80.32 216.948 80.104 217.176 79.944 217.464C79.792 217.752 79.716 218.076 79.716 218.436C79.716 218.564 79.672 218.672 79.584 218.76C79.496 218.848 79.384 218.892 79.248 218.892C79.12 218.892 79.008 218.848 78.912 218.76C78.824 218.672 78.78 218.564 78.78 218.436C78.78 217.9 78.9 217.42 79.14 216.996C79.38 216.572 79.704 216.236 80.112 215.988C80.528 215.74 80.996 215.616 81.516 215.616C82.036 215.616 82.496 215.736 82.896 215.976C83.304 216.216 83.62 216.548 83.844 216.972C84.076 217.396 84.192 217.884 84.192 218.436C84.192 218.828 84.096 219.2 83.904 219.552C83.72 219.896 83.504 220.212 83.256 220.5L80.184 224.064H83.94C84.068 224.064 84.176 224.112 84.264 224.208C84.36 224.304 84.408 224.412 84.408 224.532C84.408 224.668 84.36 224.78 84.264 224.868C84.176 224.956 84.068 225 83.94 225H79.32ZM88.3927 225C87.4967 225 86.8007 224.584 86.3047 223.752C85.8167 222.92 85.5727 221.768 85.5727 220.296C85.5727 219.328 85.6807 218.492 85.8967 217.788C86.1207 217.084 86.4447 216.544 86.8687 216.168C87.2927 215.792 87.8007 215.604 88.3927 215.604C89.0007 215.604 89.5127 215.796 89.9287 216.18C90.3527 216.556 90.6727 217.096 90.8887 217.8C91.1127 218.504 91.2247 219.336 91.2247 220.296C91.2247 221.272 91.1127 222.112 90.8887 222.816C90.6727 223.512 90.3527 224.052 89.9287 224.436C89.5127 224.812 89.0007 225 88.3927 225ZM88.3927 224.064C88.8247 224.064 89.1807 223.904 89.4607 223.584C89.7407 223.256 89.9487 222.808 90.0847 222.24C90.2207 221.672 90.2887 221.024 90.2887 220.296C90.2887 219.576 90.2167 218.936 90.0727 218.376C89.9367 217.808 89.7287 217.36 89.4487 217.032C89.1687 216.704 88.8167 216.54 88.3927 216.54C87.9687 216.54 87.6167 216.704 87.3367 217.032C87.0647 217.352 86.8567 217.796 86.7127 218.364C86.5767 218.932 86.5087 219.576 86.5087 220.296C86.5087 221.032 86.5767 221.684 86.7127 222.252C86.8567 222.812 87.0647 223.256 87.3367 223.584C87.6167 223.904 87.9687 224.064 88.3927 224.064ZM94.2157 225C94.0877 225 93.9757 224.956 93.8797 224.868C93.7917 224.78 93.7477 224.668 93.7477 224.532V216.732L92.5477 217.152C92.4597 217.192 92.3797 217.212 92.3077 217.212C92.1717 217.212 92.0597 217.168 91.9717 217.08C91.8837 216.992 91.8397 216.884 91.8397 216.756C91.8397 216.66 91.8597 216.572 91.8997 216.492C91.9477 216.412 92.0277 216.352 92.1397 216.312L93.9877 215.676C94.0277 215.66 94.0677 215.648 94.1077 215.64C94.1557 215.624 94.1957 215.616 94.2277 215.616C94.3637 215.616 94.4717 215.664 94.5517 215.76C94.6397 215.848 94.6837 215.956 94.6837 216.084V224.532C94.6837 224.668 94.6397 224.78 94.5517 224.868C94.4637 224.956 94.3517 225 94.2157 225ZM99.2308 215.616C99.7748 215.616 100.259 215.74 100.683 215.988C101.107 216.228 101.439 216.56 101.679 216.984C101.927 217.408 102.051 217.892 102.051 218.436C102.051 218.956 101.931 219.432 101.691 219.864H101.703L101.679 219.9C101.655 219.94 101.631 219.98 101.607 220.02L98.7388 224.736C98.6348 224.904 98.4948 224.988 98.3188 224.988C98.1348 224.988 97.9948 224.912 97.8988 224.76C97.8108 224.6 97.8148 224.44 97.9108 224.28L99.7948 221.208C99.6108 221.24 99.4228 221.256 99.2308 221.256C98.6948 221.256 98.2148 221.136 97.7908 220.896C97.3668 220.648 97.0308 220.312 96.7828 219.888C96.5428 219.456 96.4228 218.972 96.4228 218.436C96.4228 217.892 96.5428 217.408 96.7828 216.984C97.0308 216.56 97.3668 216.228 97.7908 215.988C98.2148 215.74 98.6948 215.616 99.2308 215.616ZM99.2428 216.48C98.8748 216.48 98.5428 216.564 98.2468 216.732C97.9588 216.9 97.7308 217.132 97.5628 217.428C97.3948 217.724 97.3108 218.06 97.3108 218.436C97.3108 218.812 97.3948 219.148 97.5628 219.444C97.7308 219.74 97.9588 219.976 98.2468 220.152C98.5428 220.32 98.8748 220.404 99.2428 220.404C99.6108 220.404 99.9388 220.32 100.227 220.152C100.515 219.976 100.743 219.74 100.911 219.444C101.079 219.148 101.163 218.812 101.163 218.436C101.163 218.06 101.079 217.724 100.911 217.428C100.743 217.132 100.515 216.9 100.227 216.732C99.9388 216.564 99.6108 216.48 99.2428 216.48Z" fill="#424242"/>
<path d="M141.32 225C141.192 225 141.08 224.956 140.984 224.868C140.896 224.78 140.852 224.668 140.852 224.532C140.852 224.412 140.896 224.304 140.984 224.208L144.62 219.912C144.82 219.696 144.98 219.456 145.1 219.192C145.22 218.92 145.28 218.668 145.28 218.436C145.28 217.876 145.116 217.416 144.788 217.056C144.46 216.696 144.036 216.516 143.516 216.516C143.18 216.516 142.872 216.604 142.592 216.78C142.32 216.948 142.104 217.176 141.944 217.464C141.792 217.752 141.716 218.076 141.716 218.436C141.716 218.564 141.672 218.672 141.584 218.76C141.496 218.848 141.384 218.892 141.248 218.892C141.12 218.892 141.008 218.848 140.912 218.76C140.824 218.672 140.78 218.564 140.78 218.436C140.78 217.9 140.9 217.42 141.14 216.996C141.38 216.572 141.704 216.236 142.112 215.988C142.528 215.74 142.996 215.616 143.516 215.616C144.036 215.616 144.496 215.736 144.896 215.976C145.304 216.216 145.62 216.548 145.844 216.972C146.076 217.396 146.192 217.884 146.192 218.436C146.192 218.828 146.096 219.2 145.904 219.552C145.72 219.896 145.504 220.212 145.256 220.5L142.184 224.064H145.94C146.068 224.064 146.176 224.112 146.264 224.208C146.36 224.304 146.408 224.412 146.408 224.532C146.408 224.668 146.36 224.78 146.264 224.868C146.176 224.956 146.068 225 145.94 225H141.32ZM150.393 225C149.497 225 148.801 224.584 148.305 223.752C147.817 222.92 147.573 221.768 147.573 220.296C147.573 219.328 147.681 218.492 147.897 217.788C148.121 217.084 148.445 216.544 148.869 216.168C149.293 215.792 149.801 215.604 150.393 215.604C151.001 215.604 151.513 215.796 151.929 216.18C152.353 216.556 152.673 217.096 152.889 217.8C153.113 218.504 153.225 219.336 153.225 220.296C153.225 221.272 153.113 222.112 152.889 222.816C152.673 223.512 152.353 224.052 151.929 224.436C151.513 224.812 151.001 225 150.393 225ZM150.393 224.064C150.825 224.064 151.181 223.904 151.461 223.584C151.741 223.256 151.949 222.808 152.085 222.24C152.221 221.672 152.289 221.024 152.289 220.296C152.289 219.576 152.217 218.936 152.073 218.376C151.937 217.808 151.729 217.36 151.449 217.032C151.169 216.704 150.817 216.54 150.393 216.54C149.969 216.54 149.617 216.704 149.337 217.032C149.065 217.352 148.857 217.796 148.713 218.364C148.577 218.932 148.509 219.576 148.509 220.296C148.509 221.032 148.577 221.684 148.713 222.252C148.857 222.812 149.065 223.256 149.337 223.584C149.617 223.904 149.969 224.064 150.393 224.064ZM155.148 225C155.02 225 154.908 224.956 154.812 224.868C154.724 224.78 154.68 224.668 154.68 224.532C154.68 224.412 154.724 224.304 154.812 224.208L158.448 219.912C158.648 219.696 158.808 219.456 158.928 219.192C159.048 218.92 159.108 218.668 159.108 218.436C159.108 217.876 158.944 217.416 158.616 217.056C158.288 216.696 157.864 216.516 157.344 216.516C157.008 216.516 156.7 216.604 156.42 216.78C156.148 216.948 155.932 217.176 155.772 217.464C155.62 217.752 155.544 218.076 155.544 218.436C155.544 218.564 155.5 218.672 155.412 218.76C155.324 218.848 155.212 218.892 155.076 218.892C154.948 218.892 154.836 218.848 154.74 218.76C154.652 218.672 154.608 218.564 154.608 218.436C154.608 217.9 154.728 217.42 154.968 216.996C155.208 216.572 155.532 216.236 155.94 215.988C156.356 215.74 156.824 215.616 157.344 215.616C157.864 215.616 158.324 215.736 158.724 215.976C159.132 216.216 159.448 216.548 159.672 216.972C159.904 217.396 160.02 217.884 160.02 218.436C160.02 218.828 159.924 219.2 159.732 219.552C159.548 219.896 159.332 220.212 159.084 220.5L156.012 224.064H159.768C159.896 224.064 160.004 224.112 160.092 224.208C160.188 224.304 160.236 224.412 160.236 224.532C160.236 224.668 160.188 224.78 160.092 224.868C160.004 224.956 159.896 225 159.768 225H155.148ZM164.221 225C163.325 225 162.629 224.584 162.133 223.752C161.645 222.92 161.401 221.768 161.401 220.296C161.401 219.328 161.509 218.492 161.725 217.788C161.949 217.084 162.273 216.544 162.697 216.168C163.121 215.792 163.629 215.604 164.221 215.604C164.829 215.604 165.341 215.796 165.757 216.18C166.181 216.556 166.501 217.096 166.717 217.8C166.941 218.504 167.053 219.336 167.053 220.296C167.053 221.272 166.941 222.112 166.717 222.816C166.501 223.512 166.181 224.052 165.757 224.436C165.341 224.812 164.829 225 164.221 225ZM164.221 224.064C164.653 224.064 165.009 223.904 165.289 223.584C165.569 223.256 165.777 222.808 165.913 222.24C166.049 221.672 166.117 221.024 166.117 220.296C166.117 219.576 166.045 218.936 165.901 218.376C165.765 217.808 165.557 217.36 165.277 217.032C164.997 216.704 164.645 216.54 164.221 216.54C163.797 216.54 163.445 216.704 163.165 217.032C162.893 217.352 162.685 217.796 162.541 218.364C162.405 218.932 162.337 219.576 162.337 220.296C162.337 221.032 162.405 221.684 162.541 222.252C162.685 222.812 162.893 223.256 163.165 223.584C163.445 223.904 163.797 224.064 164.221 224.064Z" fill="#424242"/>
<path d="M203.32 225C203.192 225 203.08 224.956 202.984 224.868C202.896 224.78 202.852 224.668 202.852 224.532C202.852 224.412 202.896 224.304 202.984 224.208L206.62 219.912C206.82 219.696 206.98 219.456 207.1 219.192C207.22 218.92 207.28 218.668 207.28 218.436C207.28 217.876 207.116 217.416 206.788 217.056C206.46 216.696 206.036 216.516 205.516 216.516C205.18 216.516 204.872 216.604 204.592 216.78C204.32 216.948 204.104 217.176 203.944 217.464C203.792 217.752 203.716 218.076 203.716 218.436C203.716 218.564 203.672 218.672 203.584 218.76C203.496 218.848 203.384 218.892 203.248 218.892C203.12 218.892 203.008 218.848 202.912 218.76C202.824 218.672 202.78 218.564 202.78 218.436C202.78 217.9 202.9 217.42 203.14 216.996C203.38 216.572 203.704 216.236 204.112 215.988C204.528 215.74 204.996 215.616 205.516 215.616C206.036 215.616 206.496 215.736 206.896 215.976C207.304 216.216 207.62 216.548 207.844 216.972C208.076 217.396 208.192 217.884 208.192 218.436C208.192 218.828 208.096 219.2 207.904 219.552C207.72 219.896 207.504 220.212 207.256 220.5L204.184 224.064H207.94C208.068 224.064 208.176 224.112 208.264 224.208C208.36 224.304 208.408 224.412 208.408 224.532C208.408 224.668 208.36 224.78 208.264 224.868C208.176 224.956 208.068 225 207.94 225H203.32ZM212.393 225C211.497 225 210.801 224.584 210.305 223.752C209.817 222.92 209.573 221.768 209.573 220.296C209.573 219.328 209.681 218.492 209.897 217.788C210.121 217.084 210.445 216.544 210.869 216.168C211.293 215.792 211.801 215.604 212.393 215.604C213.001 215.604 213.513 215.796 213.929 216.18C214.353 216.556 214.673 217.096 214.889 217.8C215.113 218.504 215.225 219.336 215.225 220.296C215.225 221.272 215.113 222.112 214.889 222.816C214.673 223.512 214.353 224.052 213.929 224.436C213.513 224.812 213.001 225 212.393 225ZM212.393 224.064C212.825 224.064 213.181 223.904 213.461 223.584C213.741 223.256 213.949 222.808 214.085 222.24C214.221 221.672 214.289 221.024 214.289 220.296C214.289 219.576 214.217 218.936 214.073 218.376C213.937 217.808 213.729 217.36 213.449 217.032C213.169 216.704 212.817 216.54 212.393 216.54C211.969 216.54 211.617 216.704 211.337 217.032C211.065 217.352 210.857 217.796 210.713 218.364C210.577 218.932 210.509 219.576 210.509 220.296C210.509 221.032 210.577 221.684 210.713 222.252C210.857 222.812 211.065 223.256 211.337 223.584C211.617 223.904 211.969 224.064 212.393 224.064ZM217.148 225C217.02 225 216.908 224.956 216.812 224.868C216.724 224.78 216.68 224.668 216.68 224.532C216.68 224.412 216.724 224.304 216.812 224.208L220.448 219.912C220.648 219.696 220.808 219.456 220.928 219.192C221.048 218.92 221.108 218.668 221.108 218.436C221.108 217.876 220.944 217.416 220.616 217.056C220.288 216.696 219.864 216.516 219.344 216.516C219.008 216.516 218.7 216.604 218.42 216.78C218.148 216.948 217.932 217.176 217.772 217.464C217.62 217.752 217.544 218.076 217.544 218.436C217.544 218.564 217.5 218.672 217.412 218.76C217.324 218.848 217.212 218.892 217.076 218.892C216.948 218.892 216.836 218.848 216.74 218.76C216.652 218.672 216.608 218.564 216.608 218.436C216.608 217.9 216.728 217.42 216.968 216.996C217.208 216.572 217.532 216.236 217.94 215.988C218.356 215.74 218.824 215.616 219.344 215.616C219.864 215.616 220.324 215.736 220.724 215.976C221.132 216.216 221.448 216.548 221.672 216.972C221.904 217.396 222.02 217.884 222.02 218.436C222.02 218.828 221.924 219.2 221.732 219.552C221.548 219.896 221.332 220.212 221.084 220.5L218.012 224.064H221.768C221.896 224.064 222.004 224.112 222.092 224.208C222.188 224.304 222.236 224.412 222.236 224.532C222.236 224.668 222.188 224.78 222.092 224.868C222.004 224.956 221.896 225 221.768 225H217.148ZM225.669 225C225.541 225 225.429 224.956 225.333 224.868C225.245 224.78 225.201 224.668 225.201 224.532V216.732L224.001 217.152C223.913 217.192 223.833 217.212 223.761 217.212C223.625 217.212 223.513 217.168 223.425 217.08C223.337 216.992 223.293 216.884 223.293 216.756C223.293 216.66 223.313 216.572 223.353 216.492C223.401 216.412 223.481 216.352 223.593 216.312L225.441 215.676C225.481 215.66 225.521 215.648 225.561 215.64C225.609 215.624 225.649 215.616 225.681 215.616C225.817 215.616 225.925 215.664 226.005 215.76C226.093 215.848 226.137 215.956 226.137 216.084V224.532C226.137 224.668 226.093 224.78 226.005 224.868C225.917 224.956 225.805 225 225.669 225Z" fill="#424242"/>
<path d="M263.32 225C263.192 225 263.08 224.956 262.984 224.868C262.896 224.78 262.852 224.668 262.852 224.532C262.852 224.412 262.896 224.304 262.984 224.208L266.62 219.912C266.82 219.696 266.98 219.456 267.1 219.192C267.22 218.92 267.28 218.668 267.28 218.436C267.28 217.876 267.116 217.416 266.788 217.056C266.46 216.696 266.036 216.516 265.516 216.516C265.18 216.516 264.872 216.604 264.592 216.78C264.32 216.948 264.104 217.176 263.944 217.464C263.792 217.752 263.716 218.076 263.716 218.436C263.716 218.564 263.672 218.672 263.584 218.76C263.496 218.848 263.384 218.892 263.248 218.892C263.12 218.892 263.008 218.848 262.912 218.76C262.824 218.672 262.78 218.564 262.78 218.436C262.78 217.9 262.9 217.42 263.14 216.996C263.38 216.572 263.704 216.236 264.112 215.988C264.528 215.74 264.996 215.616 265.516 215.616C266.036 215.616 266.496 215.736 266.896 215.976C267.304 216.216 267.62 216.548 267.844 216.972C268.076 217.396 268.192 217.884 268.192 218.436C268.192 218.828 268.096 219.2 267.904 219.552C267.72 219.896 267.504 220.212 267.256 220.5L264.184 224.064H267.94C268.068 224.064 268.176 224.112 268.264 224.208C268.36 224.304 268.408 224.412 268.408 224.532C268.408 224.668 268.36 224.78 268.264 224.868C268.176 224.956 268.068 225 267.94 225H263.32ZM272.393 225C271.497 225 270.801 224.584 270.305 223.752C269.817 222.92 269.573 221.768 269.573 220.296C269.573 219.328 269.681 218.492 269.897 217.788C270.121 217.084 270.445 216.544 270.869 216.168C271.293 215.792 271.801 215.604 272.393 215.604C273.001 215.604 273.513 215.796 273.929 216.18C274.353 216.556 274.673 217.096 274.889 217.8C275.113 218.504 275.225 219.336 275.225 220.296C275.225 221.272 275.113 222.112 274.889 222.816C274.673 223.512 274.353 224.052 273.929 224.436C273.513 224.812 273.001 225 272.393 225ZM272.393 224.064C272.825 224.064 273.181 223.904 273.461 223.584C273.741 223.256 273.949 222.808 274.085 222.24C274.221 221.672 274.289 221.024 274.289 220.296C274.289 219.576 274.217 218.936 274.073 218.376C273.937 217.808 273.729 217.36 273.449 217.032C273.169 216.704 272.817 216.54 272.393 216.54C271.969 216.54 271.617 216.704 271.337 217.032C271.065 217.352 270.857 217.796 270.713 218.364C270.577 218.932 270.509 219.576 270.509 220.296C270.509 221.032 270.577 221.684 270.713 222.252C270.857 222.812 271.065 223.256 271.337 223.584C271.617 223.904 271.969 224.064 272.393 224.064ZM277.148 225C277.02 225 276.908 224.956 276.812 224.868C276.724 224.78 276.68 224.668 276.68 224.532C276.68 224.412 276.724 224.304 276.812 224.208L280.448 219.912C280.648 219.696 280.808 219.456 280.928 219.192C281.048 218.92 281.108 218.668 281.108 218.436C281.108 217.876 280.944 217.416 280.616 217.056C280.288 216.696 279.864 216.516 279.344 216.516C279.008 216.516 278.7 216.604 278.42 216.78C278.148 216.948 277.932 217.176 277.772 217.464C277.62 217.752 277.544 218.076 277.544 218.436C277.544 218.564 277.5 218.672 277.412 218.76C277.324 218.848 277.212 218.892 277.076 218.892C276.948 218.892 276.836 218.848 276.74 218.76C276.652 218.672 276.608 218.564 276.608 218.436C276.608 217.9 276.728 217.42 276.968 216.996C277.208 216.572 277.532 216.236 277.94 215.988C278.356 215.74 278.824 215.616 279.344 215.616C279.864 215.616 280.324 215.736 280.724 215.976C281.132 216.216 281.448 216.548 281.672 216.972C281.904 217.396 282.02 217.884 282.02 218.436C282.02 218.828 281.924 219.2 281.732 219.552C281.548 219.896 281.332 220.212 281.084 220.5L278.012 224.064H281.768C281.896 224.064 282.004 224.112 282.092 224.208C282.188 224.304 282.236 224.412 282.236 224.532C282.236 224.668 282.188 224.78 282.092 224.868C282.004 224.956 281.896 225 281.768 225H277.148ZM284.121 225C283.993 225 283.881 224.956 283.785 224.868C283.697 224.78 283.653 224.668 283.653 224.532C283.653 224.412 283.697 224.304 283.785 224.208L287.421 219.912C287.621 219.696 287.781 219.456 287.901 219.192C288.021 218.92 288.081 218.668 288.081 218.436C288.081 217.876 287.917 217.416 287.589 217.056C287.261 216.696 286.837 216.516 286.317 216.516C285.981 216.516 285.673 216.604 285.393 216.78C285.121 216.948 284.905 217.176 284.745 217.464C284.593 217.752 284.517 218.076 284.517 218.436C284.517 218.564 284.473 218.672 284.385 218.76C284.297 218.848 284.185 218.892 284.049 218.892C283.921 218.892 283.809 218.848 283.713 218.76C283.625 218.672 283.581 218.564 283.581 218.436C283.581 217.9 283.701 217.42 283.941 216.996C284.181 216.572 284.505 216.236 284.913 215.988C285.329 215.74 285.797 215.616 286.317 215.616C286.837 215.616 287.297 215.736 287.697 215.976C288.105 216.216 288.421 216.548 288.645 216.972C288.877 217.396 288.993 217.884 288.993 218.436C288.993 218.828 288.897 219.2 288.705 219.552C288.521 219.896 288.305 220.212 288.057 220.5L284.985 224.064H288.741C288.869 224.064 288.977 224.112 289.065 224.208C289.161 224.304 289.209 224.412 289.209 224.532C289.209 224.668 289.161 224.78 289.065 224.868C288.977 224.956 288.869 225 288.741 225H284.121Z" fill="#424242"/>
<path d="M324.32 225C324.192 225 324.08 224.956 323.984 224.868C323.896 224.78 323.852 224.668 323.852 224.532C323.852 224.412 323.896 224.304 323.984 224.208L327.62 219.912C327.82 219.696 327.98 219.456 328.1 219.192C328.22 218.92 328.28 218.668 328.28 218.436C328.28 217.876 328.116 217.416 327.788 217.056C327.46 216.696 327.036 216.516 326.516 216.516C326.18 216.516 325.872 216.604 325.592 216.78C325.32 216.948 325.104 217.176 324.944 217.464C324.792 217.752 324.716 218.076 324.716 218.436C324.716 218.564 324.672 218.672 324.584 218.76C324.496 218.848 324.384 218.892 324.248 218.892C324.12 218.892 324.008 218.848 323.912 218.76C323.824 218.672 323.78 218.564 323.78 218.436C323.78 217.9 323.9 217.42 324.14 216.996C324.38 216.572 324.704 216.236 325.112 215.988C325.528 215.74 325.996 215.616 326.516 215.616C327.036 215.616 327.496 215.736 327.896 215.976C328.304 216.216 328.62 216.548 328.844 216.972C329.076 217.396 329.192 217.884 329.192 218.436C329.192 218.828 329.096 219.2 328.904 219.552C328.72 219.896 328.504 220.212 328.256 220.5L325.184 224.064H328.94C329.068 224.064 329.176 224.112 329.264 224.208C329.36 224.304 329.408 224.412 329.408 224.532C329.408 224.668 329.36 224.78 329.264 224.868C329.176 224.956 329.068 225 328.94 225H324.32ZM333.393 225C332.497 225 331.801 224.584 331.305 223.752C330.817 222.92 330.573 221.768 330.573 220.296C330.573 219.328 330.681 218.492 330.897 217.788C331.121 217.084 331.445 216.544 331.869 216.168C332.293 215.792 332.801 215.604 333.393 215.604C334.001 215.604 334.513 215.796 334.929 216.18C335.353 216.556 335.673 217.096 335.889 217.8C336.113 218.504 336.225 219.336 336.225 220.296C336.225 221.272 336.113 222.112 335.889 222.816C335.673 223.512 335.353 224.052 334.929 224.436C334.513 224.812 334.001 225 333.393 225ZM333.393 224.064C333.825 224.064 334.181 223.904 334.461 223.584C334.741 223.256 334.949 222.808 335.085 222.24C335.221 221.672 335.289 221.024 335.289 220.296C335.289 219.576 335.217 218.936 335.073 218.376C334.937 217.808 334.729 217.36 334.449 217.032C334.169 216.704 333.817 216.54 333.393 216.54C332.969 216.54 332.617 216.704 332.337 217.032C332.065 217.352 331.857 217.796 331.713 218.364C331.577 218.932 331.509 219.576 331.509 220.296C331.509 221.032 331.577 221.684 331.713 222.252C331.857 222.812 332.065 223.256 332.337 223.584C332.617 223.904 332.969 224.064 333.393 224.064ZM338.148 225C338.02 225 337.908 224.956 337.812 224.868C337.724 224.78 337.68 224.668 337.68 224.532C337.68 224.412 337.724 224.304 337.812 224.208L341.448 219.912C341.648 219.696 341.808 219.456 341.928 219.192C342.048 218.92 342.108 218.668 342.108 218.436C342.108 217.876 341.944 217.416 341.616 217.056C341.288 216.696 340.864 216.516 340.344 216.516C340.008 216.516 339.7 216.604 339.42 216.78C339.148 216.948 338.932 217.176 338.772 217.464C338.62 217.752 338.544 218.076 338.544 218.436C338.544 218.564 338.5 218.672 338.412 218.76C338.324 218.848 338.212 218.892 338.076 218.892C337.948 218.892 337.836 218.848 337.74 218.76C337.652 218.672 337.608 218.564 337.608 218.436C337.608 217.9 337.728 217.42 337.968 216.996C338.208 216.572 338.532 216.236 338.94 215.988C339.356 215.74 339.824 215.616 340.344 215.616C340.864 215.616 341.324 215.736 341.724 215.976C342.132 216.216 342.448 216.548 342.672 216.972C342.904 217.396 343.02 217.884 343.02 218.436C343.02 218.828 342.924 219.2 342.732 219.552C342.548 219.896 342.332 220.212 342.084 220.5L339.012 224.064H342.768C342.896 224.064 343.004 224.112 343.092 224.208C343.188 224.304 343.236 224.412 343.236 224.532C343.236 224.668 343.188 224.78 343.092 224.868C343.004 224.956 342.896 225 342.768 225H338.148ZM347.401 225.06C346.841 225.06 346.337 224.94 345.889 224.7C345.449 224.452 345.101 224.116 344.845 223.692C344.589 223.268 344.461 222.788 344.461 222.252C344.461 222.116 344.501 222 344.581 221.904C344.661 221.808 344.769 221.76 344.905 221.76C345.041 221.76 345.149 221.808 345.229 221.904C345.309 222 345.349 222.116 345.349 222.252C345.349 222.62 345.437 222.952 345.613 223.248C345.789 223.536 346.029 223.768 346.333 223.944C346.645 224.112 346.989 224.196 347.365 224.196C347.989 224.196 348.477 224.024 348.829 223.68C349.181 223.328 349.357 222.876 349.357 222.324C349.357 221.932 349.273 221.592 349.105 221.304C348.937 221.008 348.709 220.78 348.421 220.62C348.133 220.452 347.809 220.368 347.449 220.368C347.321 220.368 347.213 220.324 347.125 220.236C347.037 220.148 346.993 220.036 346.993 219.9C346.993 219.772 347.037 219.664 347.125 219.576C347.213 219.488 347.321 219.444 347.449 219.444C347.729 219.444 347.985 219.376 348.217 219.24C348.457 219.096 348.649 218.908 348.793 218.676C348.937 218.444 349.009 218.188 349.009 217.908C349.009 217.484 348.865 217.132 348.577 216.852C348.289 216.564 347.905 216.42 347.425 216.42C346.921 216.42 346.505 216.564 346.177 216.852C345.849 217.132 345.685 217.48 345.685 217.896C345.685 218.032 345.641 218.148 345.553 218.244C345.473 218.332 345.369 218.376 345.241 218.376C345.105 218.376 344.997 218.332 344.917 218.244C344.837 218.148 344.797 218.036 344.797 217.908C344.797 217.468 344.909 217.072 345.133 216.72C345.365 216.36 345.677 216.08 346.069 215.88C346.461 215.672 346.913 215.568 347.425 215.568C347.889 215.568 348.305 215.672 348.673 215.88C349.049 216.08 349.345 216.36 349.561 216.72C349.785 217.072 349.897 217.468 349.897 217.908C349.897 218.18 349.829 218.444 349.693 218.7C349.565 218.956 349.393 219.188 349.177 219.396C348.961 219.596 348.725 219.752 348.469 219.864C349.085 220.048 349.541 220.368 349.837 220.824C350.133 221.28 350.281 221.78 350.281 222.324C350.281 222.852 350.153 223.324 349.897 223.74C349.649 224.148 349.305 224.472 348.865 224.712C348.425 224.944 347.937 225.06 347.401 225.06Z" fill="#424242"/>
<path d="M380.32 225C380.192 225 380.08 224.956 379.984 224.868C379.896 224.78 379.852 224.668 379.852 224.532C379.852 224.412 379.896 224.304 379.984 224.208L383.62 219.912C383.82 219.696 383.98 219.456 384.1 219.192C384.22 218.92 384.28 218.668 384.28 218.436C384.28 217.876 384.116 217.416 383.788 217.056C383.46 216.696 383.036 216.516 382.516 216.516C382.18 216.516 381.872 216.604 381.592 216.78C381.32 216.948 381.104 217.176 380.944 217.464C380.792 217.752 380.716 218.076 380.716 218.436C380.716 218.564 380.672 218.672 380.584 218.76C380.496 218.848 380.384 218.892 380.248 218.892C380.12 218.892 380.008 218.848 379.912 218.76C379.824 218.672 379.78 218.564 379.78 218.436C379.78 217.9 379.9 217.42 380.14 216.996C380.38 216.572 380.704 216.236 381.112 215.988C381.528 215.74 381.996 215.616 382.516 215.616C383.036 215.616 383.496 215.736 383.896 215.976C384.304 216.216 384.62 216.548 384.844 216.972C385.076 217.396 385.192 217.884 385.192 218.436C385.192 218.828 385.096 219.2 384.904 219.552C384.72 219.896 384.504 220.212 384.256 220.5L381.184 224.064H384.94C385.068 224.064 385.176 224.112 385.264 224.208C385.36 224.304 385.408 224.412 385.408 224.532C385.408 224.668 385.36 224.78 385.264 224.868C385.176 224.956 385.068 225 384.94 225H380.32ZM389.393 225C388.497 225 387.801 224.584 387.305 223.752C386.817 222.92 386.573 221.768 386.573 220.296C386.573 219.328 386.681 218.492 386.897 217.788C387.121 217.084 387.445 216.544 387.869 216.168C388.293 215.792 388.801 215.604 389.393 215.604C390.001 215.604 390.513 215.796 390.929 216.18C391.353 216.556 391.673 217.096 391.889 217.8C392.113 218.504 392.225 219.336 392.225 220.296C392.225 221.272 392.113 222.112 391.889 222.816C391.673 223.512 391.353 224.052 390.929 224.436C390.513 224.812 390.001 225 389.393 225ZM389.393 224.064C389.825 224.064 390.181 223.904 390.461 223.584C390.741 223.256 390.949 222.808 391.085 222.24C391.221 221.672 391.289 221.024 391.289 220.296C391.289 219.576 391.217 218.936 391.073 218.376C390.937 217.808 390.729 217.36 390.449 217.032C390.169 216.704 389.817 216.54 389.393 216.54C388.969 216.54 388.617 216.704 388.337 217.032C388.065 217.352 387.857 217.796 387.713 218.364C387.577 218.932 387.509 219.576 387.509 220.296C387.509 221.032 387.577 221.684 387.713 222.252C387.857 222.812 388.065 223.256 388.337 223.584C388.617 223.904 388.969 224.064 389.393 224.064ZM394.148 225C394.02 225 393.908 224.956 393.812 224.868C393.724 224.78 393.68 224.668 393.68 224.532C393.68 224.412 393.724 224.304 393.812 224.208L397.448 219.912C397.648 219.696 397.808 219.456 397.928 219.192C398.048 218.92 398.108 218.668 398.108 218.436C398.108 217.876 397.944 217.416 397.616 217.056C397.288 216.696 396.864 216.516 396.344 216.516C396.008 216.516 395.7 216.604 395.42 216.78C395.148 216.948 394.932 217.176 394.772 217.464C394.62 217.752 394.544 218.076 394.544 218.436C394.544 218.564 394.5 218.672 394.412 218.76C394.324 218.848 394.212 218.892 394.076 218.892C393.948 218.892 393.836 218.848 393.74 218.76C393.652 218.672 393.608 218.564 393.608 218.436C393.608 217.9 393.728 217.42 393.968 216.996C394.208 216.572 394.532 216.236 394.94 215.988C395.356 215.74 395.824 215.616 396.344 215.616C396.864 215.616 397.324 215.736 397.724 215.976C398.132 216.216 398.448 216.548 398.672 216.972C398.904 217.396 399.02 217.884 399.02 218.436C399.02 218.828 398.924 219.2 398.732 219.552C398.548 219.896 398.332 220.212 398.084 220.5L395.012 224.064H398.768C398.896 224.064 399.004 224.112 399.092 224.208C399.188 224.304 399.236 224.412 399.236 224.532C399.236 224.668 399.188 224.78 399.092 224.868C399.004 224.956 398.896 225 398.768 225H394.148ZM405.177 225C405.057 225 404.953 224.956 404.865 224.868C404.777 224.78 404.733 224.668 404.733 224.532V222.756H400.437C400.245 222.756 400.105 222.672 400.017 222.504C399.937 222.328 399.953 222.168 400.065 222.024L404.817 215.808C404.913 215.68 405.041 215.616 405.201 215.616C405.329 215.616 405.433 215.664 405.513 215.76C405.601 215.848 405.645 215.96 405.645 216.096V221.916H406.593C406.721 221.916 406.829 221.948 406.917 222.012C407.005 222.076 407.049 222.188 407.049 222.348C407.049 222.452 407.005 222.548 406.917 222.636C406.829 222.716 406.721 222.756 406.593 222.756H405.645V224.532C405.645 224.668 405.601 224.78 405.513 224.868C405.425 224.956 405.313 225 405.177 225ZM404.733 221.916V217.332L401.205 221.916H404.733Z" fill="#424242"/>
<path d="M11.932 181.192C11.204 181.192 10.556 181.052 9.988 180.772C9.428 180.492 8.988 180.104 8.668 179.608C8.356 179.112 8.2 178.544 8.2 177.904V172.096C8.2 171.96 8.244 171.848 8.332 171.76C8.42 171.672 8.532 171.628 8.668 171.628C8.804 171.628 8.916 171.672 9.004 171.76C9.092 171.848 9.136 171.96 9.136 172.096V177.904C9.136 178.376 9.252 178.792 9.484 179.152C9.724 179.512 10.056 179.796 10.48 180.004C10.904 180.204 11.388 180.304 11.932 180.304C12.468 180.304 12.944 180.204 13.36 180.004C13.776 179.796 14.1 179.512 14.332 179.152C14.572 178.792 14.692 178.376 14.692 177.904V172.096C14.692 171.96 14.736 171.848 14.824 171.76C14.912 171.672 15.024 171.628 15.16 171.628C15.304 171.628 15.416 171.672 15.496 171.76C15.584 171.848 15.628 171.96 15.628 172.096V177.904C15.628 178.544 15.468 179.112 15.148 179.608C14.836 180.104 14.4 180.492 13.84 180.772C13.288 181.052 12.652 181.192 11.932 181.192ZM20.912 181.12C20.144 181.12 19.464 180.956 18.872 180.628C18.288 180.3 17.872 179.864 17.624 179.32C17.56 179.192 17.556 179.076 17.612 178.972C17.676 178.86 17.78 178.784 17.924 178.744C18.036 178.712 18.144 178.724 18.248 178.78C18.36 178.836 18.444 178.92 18.5 179.032C18.684 179.384 18.988 179.672 19.412 179.896C19.836 180.12 20.336 180.232 20.912 180.232C21.544 180.232 22.064 180.08 22.472 179.776C22.888 179.464 23.096 179.016 23.096 178.432C23.096 177.944 22.916 177.524 22.556 177.172C22.196 176.82 21.632 176.596 20.864 176.5C19.928 176.388 19.196 176.1 18.668 175.636C18.14 175.164 17.876 174.588 17.876 173.908C17.876 173.42 18.004 172.996 18.26 172.636C18.524 172.276 18.884 172 19.34 171.808C19.796 171.608 20.32 171.508 20.912 171.508C21.576 171.508 22.144 171.66 22.616 171.964C23.088 172.26 23.452 172.612 23.708 173.02C23.788 173.148 23.812 173.272 23.78 173.392C23.756 173.512 23.688 173.604 23.576 173.668C23.456 173.724 23.332 173.732 23.204 173.692C23.084 173.652 22.992 173.576 22.928 173.464C22.744 173.184 22.492 172.94 22.172 172.732C21.86 172.516 21.436 172.404 20.9 172.396C20.268 172.396 19.76 172.532 19.376 172.804C18.992 173.068 18.8 173.456 18.8 173.968C18.8 174.376 18.964 174.732 19.292 175.036C19.628 175.34 20.22 175.552 21.068 175.672C22.068 175.816 22.808 176.124 23.288 176.596C23.776 177.06 24.02 177.668 24.02 178.42C24.02 178.996 23.88 179.488 23.6 179.896C23.328 180.296 22.956 180.6 22.484 180.808C22.012 181.016 21.488 181.12 20.912 181.12ZM28.4973 182.188C28.4093 182.188 28.3333 182.156 28.2693 182.092C28.2133 182.036 28.1853 181.956 28.1853 181.852V181.12C27.5293 181.088 26.9493 180.92 26.4453 180.616C25.9413 180.312 25.5813 179.908 25.3653 179.404C25.3093 179.276 25.3053 179.16 25.3533 179.056C25.4093 178.944 25.5053 178.872 25.6413 178.84C25.7453 178.808 25.8453 178.82 25.9413 178.876C26.0453 178.924 26.1213 179.004 26.1693 179.116C26.3133 179.436 26.5653 179.7 26.9253 179.908C27.2853 180.108 27.7053 180.224 28.1853 180.256V176.56C27.4093 176.424 26.7933 176.132 26.3373 175.684C25.8813 175.236 25.6533 174.68 25.6533 174.016C25.6533 173.568 25.7613 173.18 25.9773 172.852C26.2013 172.516 26.5013 172.252 26.8773 172.06C27.2613 171.868 27.6973 171.752 28.1853 171.712V171.136C28.1853 171.024 28.2133 170.94 28.2693 170.884C28.3333 170.828 28.4093 170.8 28.4973 170.8C28.5773 170.8 28.6453 170.828 28.7013 170.884C28.7653 170.94 28.7973 171.024 28.7973 171.136V171.712C29.3653 171.752 29.8493 171.912 30.2493 172.192C30.6573 172.472 30.9653 172.8 31.1733 173.176C31.2453 173.304 31.2693 173.428 31.2453 173.548C31.2293 173.66 31.1653 173.744 31.0533 173.8C30.9573 173.864 30.8493 173.876 30.7293 173.836C30.6173 173.796 30.5293 173.724 30.4653 173.62C30.3213 173.364 30.1173 173.136 29.8533 172.936C29.5893 172.728 29.2373 172.604 28.7973 172.564V175.864C29.6453 176.016 30.2933 176.32 30.7413 176.776C31.1973 177.232 31.4253 177.816 31.4253 178.528C31.4253 179.04 31.3093 179.48 31.0773 179.848C30.8453 180.216 30.5293 180.508 30.1293 180.724C29.7373 180.932 29.2933 181.06 28.7973 181.108V181.852C28.7973 181.956 28.7653 182.036 28.7013 182.092C28.6453 182.156 28.5773 182.188 28.4973 182.188ZM26.5533 174.04C26.5533 174.28 26.6013 174.512 26.6973 174.736C26.7933 174.96 26.9573 175.16 27.1893 175.336C27.4293 175.512 27.7613 175.652 28.1853 175.756V172.564C27.6893 172.604 27.2933 172.748 26.9973 172.996C26.7013 173.236 26.5533 173.584 26.5533 174.04ZM30.5013 178.552C30.5093 178.104 30.3733 177.712 30.0933 177.376C29.8133 177.04 29.3813 176.804 28.7973 176.668V180.244C29.3013 180.18 29.7093 180.004 30.0213 179.716C30.3413 179.428 30.5013 179.04 30.5013 178.552ZM35.7652 181C35.1892 181 34.6732 180.868 34.2172 180.604C33.7612 180.332 33.3972 179.968 33.1252 179.512C32.8612 179.048 32.7292 178.528 32.7292 177.952C32.7292 177.816 32.7732 177.704 32.8612 177.616C32.9492 177.528 33.0572 177.484 33.1852 177.484C33.3212 177.484 33.4332 177.528 33.5212 177.616C33.6172 177.704 33.6652 177.816 33.6652 177.952C33.6652 178.352 33.7572 178.712 33.9412 179.032C34.1252 179.352 34.3732 179.604 34.6852 179.788C35.0052 179.972 35.3652 180.064 35.7652 180.064C36.1652 180.064 36.5252 179.972 36.8452 179.788C37.1652 179.604 37.4172 179.352 37.6012 179.032C37.7852 178.712 37.8772 178.352 37.8772 177.952C37.8772 177.552 37.7852 177.192 37.6012 176.872C37.4172 176.552 37.1652 176.3 36.8452 176.116C36.5252 175.932 36.1652 175.84 35.7652 175.84H33.6652C33.5292 175.84 33.4172 175.796 33.3292 175.708C33.2412 175.612 33.1972 175.5 33.1972 175.372V172.084C33.1972 171.956 33.2412 171.848 33.3292 171.76C33.4172 171.664 33.5292 171.616 33.6652 171.616H37.8772C38.0052 171.616 38.1132 171.664 38.2012 171.76C38.2972 171.848 38.3452 171.956 38.3452 172.084C38.3452 172.212 38.3012 172.324 38.2132 172.42C38.1252 172.508 38.0132 172.552 37.8772 172.552H34.1212V174.904H35.7652C36.3492 174.904 36.8692 175.04 37.3252 175.312C37.7812 175.576 38.1412 175.94 38.4052 176.404C38.6772 176.86 38.8132 177.376 38.8132 177.952C38.8132 178.528 38.6772 179.048 38.4052 179.512C38.1412 179.968 37.7812 180.332 37.3252 180.604C36.8692 180.868 36.3492 181 35.7652 181ZM42.8927 181C41.9967 181 41.3007 180.584 40.8047 179.752C40.3167 178.92 40.0727 177.768 40.0727 176.296C40.0727 175.328 40.1807 174.492 40.3967 173.788C40.6207 173.084 40.9447 172.544 41.3687 172.168C41.7927 171.792 42.3007 171.604 42.8927 171.604C43.5007 171.604 44.0127 171.796 44.4287 172.18C44.8527 172.556 45.1727 173.096 45.3887 173.8C45.6127 174.504 45.7247 175.336 45.7247 176.296C45.7247 177.272 45.6127 178.112 45.3887 178.816C45.1727 179.512 44.8527 180.052 44.4287 180.436C44.0127 180.812 43.5007 181 42.8927 181ZM42.8927 180.064C43.3247 180.064 43.6807 179.904 43.9607 179.584C44.2407 179.256 44.4487 178.808 44.5847 178.24C44.7207 177.672 44.7887 177.024 44.7887 176.296C44.7887 175.576 44.7167 174.936 44.5727 174.376C44.4367 173.808 44.2287 173.36 43.9487 173.032C43.6687 172.704 43.3167 172.54 42.8927 172.54C42.4687 172.54 42.1167 172.704 41.8367 173.032C41.5647 173.352 41.3567 173.796 41.2127 174.364C41.0767 174.932 41.0087 175.576 41.0087 176.296C41.0087 177.032 41.0767 177.684 41.2127 178.252C41.3567 178.812 41.5647 179.256 41.8367 179.584C42.1167 179.904 42.4687 180.064 42.8927 180.064Z" fill="#424242"/>
<path d="M7.932 150.192C7.204 150.192 6.556 150.052 5.988 149.772C5.428 149.492 4.988 149.104 4.668 148.608C4.356 148.112 4.2 147.544 4.2 146.904V141.096C4.2 140.96 4.244 140.848 4.332 140.76C4.42 140.672 4.532 140.628 4.668 140.628C4.804 140.628 4.916 140.672 5.004 140.76C5.092 140.848 5.136 140.96 5.136 141.096V146.904C5.136 147.376 5.252 147.792 5.484 148.152C5.724 148.512 6.056 148.796 6.48 149.004C6.904 149.204 7.388 149.304 7.932 149.304C8.468 149.304 8.944 149.204 9.36 149.004C9.776 148.796 10.1 148.512 10.332 148.152C10.572 147.792 10.692 147.376 10.692 146.904V141.096C10.692 140.96 10.736 140.848 10.824 140.76C10.912 140.672 11.024 140.628 11.16 140.628C11.304 140.628 11.416 140.672 11.496 140.76C11.584 140.848 11.628 140.96 11.628 141.096V146.904C11.628 147.544 11.468 148.112 11.148 148.608C10.836 149.104 10.4 149.492 9.84 149.772C9.288 150.052 8.652 150.192 7.932 150.192ZM16.912 150.12C16.144 150.12 15.464 149.956 14.872 149.628C14.288 149.3 13.872 148.864 13.624 148.32C13.56 148.192 13.556 148.076 13.612 147.972C13.676 147.86 13.78 147.784 13.924 147.744C14.036 147.712 14.144 147.724 14.248 147.78C14.36 147.836 14.444 147.92 14.5 148.032C14.684 148.384 14.988 148.672 15.412 148.896C15.836 149.12 16.336 149.232 16.912 149.232C17.544 149.232 18.064 149.08 18.472 148.776C18.888 148.464 19.096 148.016 19.096 147.432C19.096 146.944 18.916 146.524 18.556 146.172C18.196 145.82 17.632 145.596 16.864 145.5C15.928 145.388 15.196 145.1 14.668 144.636C14.14 144.164 13.876 143.588 13.876 142.908C13.876 142.42 14.004 141.996 14.26 141.636C14.524 141.276 14.884 141 15.34 140.808C15.796 140.608 16.32 140.508 16.912 140.508C17.576 140.508 18.144 140.66 18.616 140.964C19.088 141.26 19.452 141.612 19.708 142.02C19.788 142.148 19.812 142.272 19.78 142.392C19.756 142.512 19.688 142.604 19.576 142.668C19.456 142.724 19.332 142.732 19.204 142.692C19.084 142.652 18.992 142.576 18.928 142.464C18.744 142.184 18.492 141.94 18.172 141.732C17.86 141.516 17.436 141.404 16.9 141.396C16.268 141.396 15.76 141.532 15.376 141.804C14.992 142.068 14.8 142.456 14.8 142.968C14.8 143.376 14.964 143.732 15.292 144.036C15.628 144.34 16.22 144.552 17.068 144.672C18.068 144.816 18.808 145.124 19.288 145.596C19.776 146.06 20.02 146.668 20.02 147.42C20.02 147.996 19.88 148.488 19.6 148.896C19.328 149.296 18.956 149.6 18.484 149.808C18.012 150.016 17.488 150.12 16.912 150.12ZM24.4973 151.188C24.4093 151.188 24.3333 151.156 24.2693 151.092C24.2133 151.036 24.1853 150.956 24.1853 150.852V150.12C23.5293 150.088 22.9493 149.92 22.4453 149.616C21.9413 149.312 21.5813 148.908 21.3653 148.404C21.3093 148.276 21.3053 148.16 21.3533 148.056C21.4093 147.944 21.5053 147.872 21.6413 147.84C21.7453 147.808 21.8453 147.82 21.9413 147.876C22.0453 147.924 22.1213 148.004 22.1693 148.116C22.3133 148.436 22.5653 148.7 22.9253 148.908C23.2853 149.108 23.7053 149.224 24.1853 149.256V145.56C23.4093 145.424 22.7933 145.132 22.3373 144.684C21.8813 144.236 21.6533 143.68 21.6533 143.016C21.6533 142.568 21.7613 142.18 21.9773 141.852C22.2013 141.516 22.5013 141.252 22.8773 141.06C23.2613 140.868 23.6973 140.752 24.1853 140.712V140.136C24.1853 140.024 24.2133 139.94 24.2693 139.884C24.3333 139.828 24.4093 139.8 24.4973 139.8C24.5773 139.8 24.6453 139.828 24.7013 139.884C24.7653 139.94 24.7973 140.024 24.7973 140.136V140.712C25.3653 140.752 25.8493 140.912 26.2493 141.192C26.6573 141.472 26.9653 141.8 27.1733 142.176C27.2453 142.304 27.2693 142.428 27.2453 142.548C27.2293 142.66 27.1653 142.744 27.0533 142.8C26.9573 142.864 26.8493 142.876 26.7293 142.836C26.6173 142.796 26.5293 142.724 26.4653 142.62C26.3213 142.364 26.1173 142.136 25.8533 141.936C25.5893 141.728 25.2373 141.604 24.7973 141.564V144.864C25.6453 145.016 26.2933 145.32 26.7413 145.776C27.1973 146.232 27.4253 146.816 27.4253 147.528C27.4253 148.04 27.3093 148.48 27.0773 148.848C26.8453 149.216 26.5293 149.508 26.1293 149.724C25.7373 149.932 25.2933 150.06 24.7973 150.108V150.852C24.7973 150.956 24.7653 151.036 24.7013 151.092C24.6453 151.156 24.5773 151.188 24.4973 151.188ZM22.5533 143.04C22.5533 143.28 22.6013 143.512 22.6973 143.736C22.7933 143.96 22.9573 144.16 23.1893 144.336C23.4293 144.512 23.7613 144.652 24.1853 144.756V141.564C23.6893 141.604 23.2933 141.748 22.9973 141.996C22.7013 142.236 22.5533 142.584 22.5533 143.04ZM26.5013 147.552C26.5093 147.104 26.3733 146.712 26.0933 146.376C25.8133 146.04 25.3813 145.804 24.7973 145.668V149.244C25.3013 149.18 25.7093 149.004 26.0213 148.716C26.3413 148.428 26.5013 148.04 26.5013 147.552ZM30.8172 150C30.6892 150 30.5772 149.956 30.4812 149.868C30.3932 149.78 30.3492 149.668 30.3492 149.532V141.732L29.1492 142.152C29.0612 142.192 28.9812 142.212 28.9092 142.212C28.7732 142.212 28.6612 142.168 28.5732 142.08C28.4852 141.992 28.4412 141.884 28.4412 141.756C28.4412 141.66 28.4612 141.572 28.5012 141.492C28.5492 141.412 28.6292 141.352 28.7412 141.312L30.5892 140.676C30.6292 140.66 30.6692 140.648 30.7092 140.64C30.7572 140.624 30.7972 140.616 30.8292 140.616C30.9652 140.616 31.0732 140.664 31.1532 140.76C31.2412 140.848 31.2852 140.956 31.2852 141.084V149.532C31.2852 149.668 31.2412 149.78 31.1532 149.868C31.0652 149.956 30.9532 150 30.8172 150ZM35.9044 150C35.0084 150 34.3124 149.584 33.8164 148.752C33.3284 147.92 33.0844 146.768 33.0844 145.296C33.0844 144.328 33.1924 143.492 33.4084 142.788C33.6324 142.084 33.9564 141.544 34.3804 141.168C34.8044 140.792 35.3124 140.604 35.9044 140.604C36.5124 140.604 37.0244 140.796 37.4404 141.18C37.8644 141.556 38.1844 142.096 38.4004 142.8C38.6244 143.504 38.7364 144.336 38.7364 145.296C38.7364 146.272 38.6244 147.112 38.4004 147.816C38.1844 148.512 37.8644 149.052 37.4404 149.436C37.0244 149.812 36.5124 150 35.9044 150ZM35.9044 149.064C36.3364 149.064 36.6924 148.904 36.9724 148.584C37.2524 148.256 37.4604 147.808 37.5964 147.24C37.7324 146.672 37.8004 146.024 37.8004 145.296C37.8004 144.576 37.7284 143.936 37.5844 143.376C37.4484 142.808 37.2404 142.36 36.9604 142.032C36.6804 141.704 36.3284 141.54 35.9044 141.54C35.4804 141.54 35.1284 141.704 34.8484 142.032C34.5764 142.352 34.3684 142.796 34.2244 143.364C34.0884 143.932 34.0204 144.576 34.0204 145.296C34.0204 146.032 34.0884 146.684 34.2244 147.252C34.3684 147.812 34.5764 148.256 34.8484 148.584C35.1284 148.904 35.4804 149.064 35.9044 149.064ZM42.7598 150C41.8638 150 41.1678 149.584 40.6718 148.752C40.1838 147.92 39.9398 146.768 39.9398 145.296C39.9398 144.328 40.0478 143.492 40.2638 142.788C40.4878 142.084 40.8118 141.544 41.2358 141.168C41.6598 140.792 42.1678 140.604 42.7598 140.604C43.3678 140.604 43.8798 140.796 44.2958 141.18C44.7198 141.556 45.0398 142.096 45.2558 142.8C45.4798 143.504 45.5918 144.336 45.5918 145.296C45.5918 146.272 45.4798 147.112 45.2558 147.816C45.0398 148.512 44.7198 149.052 44.2958 149.436C43.8798 149.812 43.3678 150 42.7598 150ZM42.7598 149.064C43.1918 149.064 43.5478 148.904 43.8278 148.584C44.1078 148.256 44.3158 147.808 44.4518 147.24C44.5878 146.672 44.6558 146.024 44.6558 145.296C44.6558 144.576 44.5838 143.936 44.4398 143.376C44.3038 142.808 44.0958 142.36 43.8158 142.032C43.5358 141.704 43.1838 141.54 42.7598 141.54C42.3358 141.54 41.9838 141.704 41.7038 142.032C41.4318 142.352 41.2238 142.796 41.0798 143.364C40.9438 143.932 40.8758 144.576 40.8758 145.296C40.8758 146.032 40.9438 146.684 41.0798 147.252C41.2238 147.812 41.4318 148.256 41.7038 148.584C41.9838 148.904 42.3358 149.064 42.7598 149.064Z" fill="#424242"/>
<path d="M6.932 119.192C6.204 119.192 5.556 119.052 4.988 118.772C4.428 118.492 3.988 118.104 3.668 117.608C3.356 117.112 3.2 116.544 3.2 115.904V110.096C3.2 109.96 3.244 109.848 3.332 109.76C3.42 109.672 3.532 109.628 3.668 109.628C3.804 109.628 3.916 109.672 4.004 109.76C4.092 109.848 4.136 109.96 4.136 110.096V115.904C4.136 116.376 4.252 116.792 4.484 117.152C4.724 117.512 5.056 117.796 5.48 118.004C5.904 118.204 6.388 118.304 6.932 118.304C7.468 118.304 7.944 118.204 8.36 118.004C8.776 117.796 9.1 117.512 9.332 117.152C9.572 116.792 9.692 116.376 9.692 115.904V110.096C9.692 109.96 9.736 109.848 9.824 109.76C9.912 109.672 10.024 109.628 10.16 109.628C10.304 109.628 10.416 109.672 10.496 109.76C10.584 109.848 10.628 109.96 10.628 110.096V115.904C10.628 116.544 10.468 117.112 10.148 117.608C9.836 118.104 9.4 118.492 8.84 118.772C8.288 119.052 7.652 119.192 6.932 119.192ZM15.912 119.12C15.144 119.12 14.464 118.956 13.872 118.628C13.288 118.3 12.872 117.864 12.624 117.32C12.56 117.192 12.556 117.076 12.612 116.972C12.676 116.86 12.78 116.784 12.924 116.744C13.036 116.712 13.144 116.724 13.248 116.78C13.36 116.836 13.444 116.92 13.5 117.032C13.684 117.384 13.988 117.672 14.412 117.896C14.836 118.12 15.336 118.232 15.912 118.232C16.544 118.232 17.064 118.08 17.472 117.776C17.888 117.464 18.096 117.016 18.096 116.432C18.096 115.944 17.916 115.524 17.556 115.172C17.196 114.82 16.632 114.596 15.864 114.5C14.928 114.388 14.196 114.1 13.668 113.636C13.14 113.164 12.876 112.588 12.876 111.908C12.876 111.42 13.004 110.996 13.26 110.636C13.524 110.276 13.884 110 14.34 109.808C14.796 109.608 15.32 109.508 15.912 109.508C16.576 109.508 17.144 109.66 17.616 109.964C18.088 110.26 18.452 110.612 18.708 111.02C18.788 111.148 18.812 111.272 18.78 111.392C18.756 111.512 18.688 111.604 18.576 111.668C18.456 111.724 18.332 111.732 18.204 111.692C18.084 111.652 17.992 111.576 17.928 111.464C17.744 111.184 17.492 110.94 17.172 110.732C16.86 110.516 16.436 110.404 15.9 110.396C15.268 110.396 14.76 110.532 14.376 110.804C13.992 111.068 13.8 111.456 13.8 111.968C13.8 112.376 13.964 112.732 14.292 113.036C14.628 113.34 15.22 113.552 16.068 113.672C17.068 113.816 17.808 114.124 18.288 114.596C18.776 115.06 19.02 115.668 19.02 116.42C19.02 116.996 18.88 117.488 18.6 117.896C18.328 118.296 17.956 118.6 17.484 118.808C17.012 119.016 16.488 119.12 15.912 119.12ZM23.4973 120.188C23.4093 120.188 23.3333 120.156 23.2693 120.092C23.2133 120.036 23.1853 119.956 23.1853 119.852V119.12C22.5293 119.088 21.9493 118.92 21.4453 118.616C20.9413 118.312 20.5813 117.908 20.3653 117.404C20.3093 117.276 20.3053 117.16 20.3533 117.056C20.4093 116.944 20.5053 116.872 20.6413 116.84C20.7453 116.808 20.8453 116.82 20.9413 116.876C21.0453 116.924 21.1213 117.004 21.1693 117.116C21.3133 117.436 21.5653 117.7 21.9253 117.908C22.2853 118.108 22.7053 118.224 23.1853 118.256V114.56C22.4093 114.424 21.7933 114.132 21.3373 113.684C20.8813 113.236 20.6533 112.68 20.6533 112.016C20.6533 111.568 20.7613 111.18 20.9773 110.852C21.2013 110.516 21.5013 110.252 21.8773 110.06C22.2613 109.868 22.6973 109.752 23.1853 109.712V109.136C23.1853 109.024 23.2133 108.94 23.2693 108.884C23.3333 108.828 23.4093 108.8 23.4973 108.8C23.5773 108.8 23.6453 108.828 23.7013 108.884C23.7653 108.94 23.7973 109.024 23.7973 109.136V109.712C24.3653 109.752 24.8493 109.912 25.2493 110.192C25.6573 110.472 25.9653 110.8 26.1733 111.176C26.2453 111.304 26.2693 111.428 26.2453 111.548C26.2293 111.66 26.1653 111.744 26.0533 111.8C25.9573 111.864 25.8493 111.876 25.7293 111.836C25.6173 111.796 25.5293 111.724 25.4653 111.62C25.3213 111.364 25.1173 111.136 24.8533 110.936C24.5893 110.728 24.2373 110.604 23.7973 110.564V113.864C24.6453 114.016 25.2933 114.32 25.7413 114.776C26.1973 115.232 26.4253 115.816 26.4253 116.528C26.4253 117.04 26.3093 117.48 26.0773 117.848C25.8453 118.216 25.5293 118.508 25.1293 118.724C24.7373 118.932 24.2933 119.06 23.7973 119.108V119.852C23.7973 119.956 23.7653 120.036 23.7013 120.092C23.6453 120.156 23.5773 120.188 23.4973 120.188ZM21.5533 112.04C21.5533 112.28 21.6013 112.512 21.6973 112.736C21.7933 112.96 21.9573 113.16 22.1893 113.336C22.4293 113.512 22.7613 113.652 23.1853 113.756V110.564C22.6893 110.604 22.2933 110.748 21.9973 110.996C21.7013 111.236 21.5533 111.584 21.5533 112.04ZM25.5013 116.552C25.5093 116.104 25.3733 115.712 25.0933 115.376C24.8133 115.04 24.3813 114.804 23.7973 114.668V118.244C24.3013 118.18 24.7093 118.004 25.0213 117.716C25.3413 117.428 25.5013 117.04 25.5013 116.552ZM29.8172 119C29.6892 119 29.5772 118.956 29.4812 118.868C29.3932 118.78 29.3492 118.668 29.3492 118.532V110.732L28.1492 111.152C28.0612 111.192 27.9812 111.212 27.9092 111.212C27.7732 111.212 27.6612 111.168 27.5732 111.08C27.4852 110.992 27.4412 110.884 27.4412 110.756C27.4412 110.66 27.4612 110.572 27.5012 110.492C27.5492 110.412 27.6292 110.352 27.7412 110.312L29.5892 109.676C29.6292 109.66 29.6692 109.648 29.7092 109.64C29.7572 109.624 29.7972 109.616 29.8292 109.616C29.9652 109.616 30.0732 109.664 30.1532 109.76C30.2412 109.848 30.2852 109.956 30.2852 110.084V118.532C30.2852 118.668 30.2412 118.78 30.1532 118.868C30.0652 118.956 29.9532 119 29.8172 119ZM35.3004 119C34.7244 119 34.2084 118.868 33.7524 118.604C33.2964 118.332 32.9324 117.968 32.6604 117.512C32.3964 117.048 32.2644 116.528 32.2644 115.952C32.2644 115.816 32.3084 115.704 32.3964 115.616C32.4844 115.528 32.5924 115.484 32.7204 115.484C32.8564 115.484 32.9684 115.528 33.0564 115.616C33.1524 115.704 33.2004 115.816 33.2004 115.952C33.2004 116.352 33.2924 116.712 33.4764 117.032C33.6604 117.352 33.9084 117.604 34.2204 117.788C34.5404 117.972 34.9004 118.064 35.3004 118.064C35.7004 118.064 36.0604 117.972 36.3804 117.788C36.7004 117.604 36.9524 117.352 37.1364 117.032C37.3204 116.712 37.4124 116.352 37.4124 115.952C37.4124 115.552 37.3204 115.192 37.1364 114.872C36.9524 114.552 36.7004 114.3 36.3804 114.116C36.0604 113.932 35.7004 113.84 35.3004 113.84H33.2004C33.0644 113.84 32.9524 113.796 32.8644 113.708C32.7764 113.612 32.7324 113.5 32.7324 113.372V110.084C32.7324 109.956 32.7764 109.848 32.8644 109.76C32.9524 109.664 33.0644 109.616 33.2004 109.616H37.4124C37.5404 109.616 37.6484 109.664 37.7364 109.76C37.8324 109.848 37.8804 109.956 37.8804 110.084C37.8804 110.212 37.8364 110.324 37.7484 110.42C37.6604 110.508 37.5484 110.552 37.4124 110.552H33.6564V112.904H35.3004C35.8844 112.904 36.4044 113.04 36.8604 113.312C37.3164 113.576 37.6764 113.94 37.9404 114.404C38.2124 114.86 38.3484 115.376 38.3484 115.952C38.3484 116.528 38.2124 117.048 37.9404 117.512C37.6764 117.968 37.3164 118.332 36.8604 118.604C36.4044 118.868 35.8844 119 35.3004 119ZM42.4278 119C41.5318 119 40.8358 118.584 40.3398 117.752C39.8518 116.92 39.6078 115.768 39.6078 114.296C39.6078 113.328 39.7158 112.492 39.9318 111.788C40.1558 111.084 40.4798 110.544 40.9038 110.168C41.3278 109.792 41.8358 109.604 42.4278 109.604C43.0358 109.604 43.5478 109.796 43.9638 110.18C44.3878 110.556 44.7078 111.096 44.9238 111.8C45.1478 112.504 45.2598 113.336 45.2598 114.296C45.2598 115.272 45.1478 116.112 44.9238 116.816C44.7078 117.512 44.3878 118.052 43.9638 118.436C43.5478 118.812 43.0358 119 42.4278 119ZM42.4278 118.064C42.8598 118.064 43.2158 117.904 43.4958 117.584C43.7758 117.256 43.9838 116.808 44.1198 116.24C44.2558 115.672 44.3238 115.024 44.3238 114.296C44.3238 113.576 44.2518 112.936 44.1078 112.376C43.9718 111.808 43.7638 111.36 43.4838 111.032C43.2038 110.704 42.8518 110.54 42.4278 110.54C42.0038 110.54 41.6518 110.704 41.3718 111.032C41.0998 111.352 40.8918 111.796 40.7478 112.364C40.6118 112.932 40.5438 113.576 40.5438 114.296C40.5438 115.032 40.6118 115.684 40.7478 116.252C40.8918 116.812 41.0998 117.256 41.3718 117.584C41.6518 117.904 42.0038 118.064 42.4278 118.064Z" fill="#424242"/>
<path d="M5.932 88.192C5.204 88.192 4.556 88.052 3.988 87.772C3.428 87.492 2.988 87.104 2.668 86.608C2.356 86.112 2.2 85.544 2.2 84.904V79.096C2.2 78.96 2.244 78.848 2.332 78.76C2.42 78.672 2.532 78.628 2.668 78.628C2.804 78.628 2.916 78.672 3.004 78.76C3.092 78.848 3.136 78.96 3.136 79.096V84.904C3.136 85.376 3.252 85.792 3.484 86.152C3.724 86.512 4.056 86.796 4.48 87.004C4.904 87.204 5.388 87.304 5.932 87.304C6.468 87.304 6.944 87.204 7.36 87.004C7.776 86.796 8.1 86.512 8.332 86.152C8.572 85.792 8.692 85.376 8.692 84.904V79.096C8.692 78.96 8.736 78.848 8.824 78.76C8.912 78.672 9.024 78.628 9.16 78.628C9.304 78.628 9.416 78.672 9.496 78.76C9.584 78.848 9.628 78.96 9.628 79.096V84.904C9.628 85.544 9.468 86.112 9.148 86.608C8.836 87.104 8.4 87.492 7.84 87.772C7.288 88.052 6.652 88.192 5.932 88.192ZM14.912 88.12C14.144 88.12 13.464 87.956 12.872 87.628C12.288 87.3 11.872 86.864 11.624 86.32C11.56 86.192 11.556 86.076 11.612 85.972C11.676 85.86 11.78 85.784 11.924 85.744C12.036 85.712 12.144 85.724 12.248 85.78C12.36 85.836 12.444 85.92 12.5 86.032C12.684 86.384 12.988 86.672 13.412 86.896C13.836 87.12 14.336 87.232 14.912 87.232C15.544 87.232 16.064 87.08 16.472 86.776C16.888 86.464 17.096 86.016 17.096 85.432C17.096 84.944 16.916 84.524 16.556 84.172C16.196 83.82 15.632 83.596 14.864 83.5C13.928 83.388 13.196 83.1 12.668 82.636C12.14 82.164 11.876 81.588 11.876 80.908C11.876 80.42 12.004 79.996 12.26 79.636C12.524 79.276 12.884 79 13.34 78.808C13.796 78.608 14.32 78.508 14.912 78.508C15.576 78.508 16.144 78.66 16.616 78.964C17.088 79.26 17.452 79.612 17.708 80.02C17.788 80.148 17.812 80.272 17.78 80.392C17.756 80.512 17.688 80.604 17.576 80.668C17.456 80.724 17.332 80.732 17.204 80.692C17.084 80.652 16.992 80.576 16.928 80.464C16.744 80.184 16.492 79.94 16.172 79.732C15.86 79.516 15.436 79.404 14.9 79.396C14.268 79.396 13.76 79.532 13.376 79.804C12.992 80.068 12.8 80.456 12.8 80.968C12.8 81.376 12.964 81.732 13.292 82.036C13.628 82.34 14.22 82.552 15.068 82.672C16.068 82.816 16.808 83.124 17.288 83.596C17.776 84.06 18.02 84.668 18.02 85.42C18.02 85.996 17.88 86.488 17.6 86.896C17.328 87.296 16.956 87.6 16.484 87.808C16.012 88.016 15.488 88.12 14.912 88.12ZM22.4973 89.188C22.4093 89.188 22.3333 89.156 22.2693 89.092C22.2133 89.036 22.1853 88.956 22.1853 88.852V88.12C21.5293 88.088 20.9493 87.92 20.4453 87.616C19.9413 87.312 19.5813 86.908 19.3653 86.404C19.3093 86.276 19.3053 86.16 19.3533 86.056C19.4093 85.944 19.5053 85.872 19.6413 85.84C19.7453 85.808 19.8453 85.82 19.9413 85.876C20.0453 85.924 20.1213 86.004 20.1693 86.116C20.3133 86.436 20.5653 86.7 20.9253 86.908C21.2853 87.108 21.7053 87.224 22.1853 87.256V83.56C21.4093 83.424 20.7933 83.132 20.3373 82.684C19.8813 82.236 19.6533 81.68 19.6533 81.016C19.6533 80.568 19.7613 80.18 19.9773 79.852C20.2013 79.516 20.5013 79.252 20.8773 79.06C21.2613 78.868 21.6973 78.752 22.1853 78.712V78.136C22.1853 78.024 22.2133 77.94 22.2693 77.884C22.3333 77.828 22.4093 77.8 22.4973 77.8C22.5773 77.8 22.6453 77.828 22.7013 77.884C22.7653 77.94 22.7973 78.024 22.7973 78.136V78.712C23.3653 78.752 23.8493 78.912 24.2493 79.192C24.6573 79.472 24.9653 79.8 25.1733 80.176C25.2453 80.304 25.2693 80.428 25.2453 80.548C25.2293 80.66 25.1653 80.744 25.0533 80.8C24.9573 80.864 24.8493 80.876 24.7293 80.836C24.6173 80.796 24.5293 80.724 24.4653 80.62C24.3213 80.364 24.1173 80.136 23.8533 79.936C23.5893 79.728 23.2373 79.604 22.7973 79.564V82.864C23.6453 83.016 24.2933 83.32 24.7413 83.776C25.1973 84.232 25.4253 84.816 25.4253 85.528C25.4253 86.04 25.3093 86.48 25.0773 86.848C24.8453 87.216 24.5293 87.508 24.1293 87.724C23.7373 87.932 23.2933 88.06 22.7973 88.108V88.852C22.7973 88.956 22.7653 89.036 22.7013 89.092C22.6453 89.156 22.5773 89.188 22.4973 89.188ZM20.5533 81.04C20.5533 81.28 20.6013 81.512 20.6973 81.736C20.7933 81.96 20.9573 82.16 21.1893 82.336C21.4293 82.512 21.7613 82.652 22.1853 82.756V79.564C21.6893 79.604 21.2933 79.748 20.9973 79.996C20.7013 80.236 20.5533 80.584 20.5533 81.04ZM24.5013 85.552C24.5093 85.104 24.3733 84.712 24.0933 84.376C23.8133 84.04 23.3813 83.804 22.7973 83.668V87.244C23.3013 87.18 23.7093 87.004 24.0213 86.716C24.3413 86.428 24.5013 86.04 24.5013 85.552ZM27.2692 88C27.1412 88 27.0292 87.956 26.9332 87.868C26.8452 87.78 26.8012 87.668 26.8012 87.532C26.8012 87.412 26.8452 87.304 26.9332 87.208L30.5692 82.912C30.7692 82.696 30.9292 82.456 31.0492 82.192C31.1692 81.92 31.2292 81.668 31.2292 81.436C31.2292 80.876 31.0652 80.416 30.7372 80.056C30.4092 79.696 29.9852 79.516 29.4652 79.516C29.1292 79.516 28.8212 79.604 28.5412 79.78C28.2692 79.948 28.0532 80.176 27.8932 80.464C27.7412 80.752 27.6652 81.076 27.6652 81.436C27.6652 81.564 27.6212 81.672 27.5332 81.76C27.4452 81.848 27.3332 81.892 27.1972 81.892C27.0692 81.892 26.9572 81.848 26.8612 81.76C26.7732 81.672 26.7292 81.564 26.7292 81.436C26.7292 80.9 26.8492 80.42 27.0892 79.996C27.3292 79.572 27.6532 79.236 28.0612 78.988C28.4772 78.74 28.9452 78.616 29.4652 78.616C29.9852 78.616 30.4452 78.736 30.8452 78.976C31.2532 79.216 31.5692 79.548 31.7932 79.972C32.0252 80.396 32.1412 80.884 32.1412 81.436C32.1412 81.828 32.0452 82.2 31.8532 82.552C31.6692 82.896 31.4532 83.212 31.2052 83.5L28.1332 87.064H31.8892C32.0172 87.064 32.1252 87.112 32.2132 87.208C32.3092 87.304 32.3572 87.412 32.3572 87.532C32.3572 87.668 32.3092 87.78 32.2132 87.868C32.1252 87.956 32.0172 88 31.8892 88H27.2692ZM36.3419 88C35.4459 88 34.7499 87.584 34.2539 86.752C33.7659 85.92 33.5219 84.768 33.5219 83.296C33.5219 82.328 33.6299 81.492 33.8459 80.788C34.0699 80.084 34.3939 79.544 34.8179 79.168C35.2419 78.792 35.7499 78.604 36.3419 78.604C36.9499 78.604 37.4619 78.796 37.8779 79.18C38.3019 79.556 38.6219 80.096 38.8379 80.8C39.0619 81.504 39.1739 82.336 39.1739 83.296C39.1739 84.272 39.0619 85.112 38.8379 85.816C38.6219 86.512 38.3019 87.052 37.8779 87.436C37.4619 87.812 36.9499 88 36.3419 88ZM36.3419 87.064C36.7739 87.064 37.1299 86.904 37.4099 86.584C37.6899 86.256 37.8979 85.808 38.0339 85.24C38.1699 84.672 38.2379 84.024 38.2379 83.296C38.2379 82.576 38.1659 81.936 38.0219 81.376C37.8859 80.808 37.6779 80.36 37.3979 80.032C37.1179 79.704 36.7659 79.54 36.3419 79.54C35.9179 79.54 35.5659 79.704 35.2859 80.032C35.0139 80.352 34.8059 80.796 34.6619 81.364C34.5259 81.932 34.4579 82.576 34.4579 83.296C34.4579 84.032 34.5259 84.684 34.6619 85.252C34.8059 85.812 35.0139 86.256 35.2859 86.584C35.5659 86.904 35.9179 87.064 36.3419 87.064ZM43.1973 88C42.3013 88 41.6053 87.584 41.1093 86.752C40.6213 85.92 40.3773 84.768 40.3773 83.296C40.3773 82.328 40.4853 81.492 40.7013 80.788C40.9253 80.084 41.2493 79.544 41.6733 79.168C42.0973 78.792 42.6053 78.604 43.1973 78.604C43.8053 78.604 44.3173 78.796 44.7333 79.18C45.1573 79.556 45.4773 80.096 45.6933 80.8C45.9173 81.504 46.0293 82.336 46.0293 83.296C46.0293 84.272 45.9173 85.112 45.6933 85.816C45.4773 86.512 45.1573 87.052 44.7333 87.436C44.3173 87.812 43.8053 88 43.1973 88ZM43.1973 87.064C43.6293 87.064 43.9853 86.904 44.2653 86.584C44.5453 86.256 44.7533 85.808 44.8893 85.24C45.0253 84.672 45.0933 84.024 45.0933 83.296C45.0933 82.576 45.0213 81.936 44.8773 81.376C44.7413 80.808 44.5333 80.36 44.2533 80.032C43.9733 79.704 43.6213 79.54 43.1973 79.54C42.7733 79.54 42.4213 79.704 42.1413 80.032C41.8693 80.352 41.6613 80.796 41.5173 81.364C41.3813 81.932 41.3133 82.576 41.3133 83.296C41.3133 84.032 41.3813 84.684 41.5173 85.252C41.6613 85.812 41.8693 86.256 42.1413 86.584C42.4213 86.904 42.7733 87.064 43.1973 87.064Z" fill="#424242"/>
<path d="M4.932 57.192C4.204 57.192 3.556 57.052 2.988 56.772C2.428 56.492 1.988 56.104 1.668 55.608C1.356 55.112 1.2 54.544 1.2 53.904V48.096C1.2 47.96 1.244 47.848 1.332 47.76C1.42 47.672 1.532 47.628 1.668 47.628C1.804 47.628 1.916 47.672 2.004 47.76C2.092 47.848 2.136 47.96 2.136 48.096V53.904C2.136 54.376 2.252 54.792 2.484 55.152C2.724 55.512 3.056 55.796 3.48 56.004C3.904 56.204 4.388 56.304 4.932 56.304C5.468 56.304 5.944 56.204 6.36 56.004C6.776 55.796 7.1 55.512 7.332 55.152C7.572 54.792 7.692 54.376 7.692 53.904V48.096C7.692 47.96 7.736 47.848 7.824 47.76C7.912 47.672 8.024 47.628 8.16 47.628C8.304 47.628 8.416 47.672 8.496 47.76C8.584 47.848 8.628 47.96 8.628 48.096V53.904C8.628 54.544 8.468 55.112 8.148 55.608C7.836 56.104 7.4 56.492 6.84 56.772C6.288 57.052 5.652 57.192 4.932 57.192ZM13.912 57.12C13.144 57.12 12.464 56.956 11.872 56.628C11.288 56.3 10.872 55.864 10.624 55.32C10.56 55.192 10.556 55.076 10.612 54.972C10.676 54.86 10.78 54.784 10.924 54.744C11.036 54.712 11.144 54.724 11.248 54.78C11.36 54.836 11.444 54.92 11.5 55.032C11.684 55.384 11.988 55.672 12.412 55.896C12.836 56.12 13.336 56.232 13.912 56.232C14.544 56.232 15.064 56.08 15.472 55.776C15.888 55.464 16.096 55.016 16.096 54.432C16.096 53.944 15.916 53.524 15.556 53.172C15.196 52.82 14.632 52.596 13.864 52.5C12.928 52.388 12.196 52.1 11.668 51.636C11.14 51.164 10.876 50.588 10.876 49.908C10.876 49.42 11.004 48.996 11.26 48.636C11.524 48.276 11.884 48 12.34 47.808C12.796 47.608 13.32 47.508 13.912 47.508C14.576 47.508 15.144 47.66 15.616 47.964C16.088 48.26 16.452 48.612 16.708 49.02C16.788 49.148 16.812 49.272 16.78 49.392C16.756 49.512 16.688 49.604 16.576 49.668C16.456 49.724 16.332 49.732 16.204 49.692C16.084 49.652 15.992 49.576 15.928 49.464C15.744 49.184 15.492 48.94 15.172 48.732C14.86 48.516 14.436 48.404 13.9 48.396C13.268 48.396 12.76 48.532 12.376 48.804C11.992 49.068 11.8 49.456 11.8 49.968C11.8 50.376 11.964 50.732 12.292 51.036C12.628 51.34 13.22 51.552 14.068 51.672C15.068 51.816 15.808 52.124 16.288 52.596C16.776 53.06 17.02 53.668 17.02 54.42C17.02 54.996 16.88 55.488 16.6 55.896C16.328 56.296 15.956 56.6 15.484 56.808C15.012 57.016 14.488 57.12 13.912 57.12ZM21.4973 58.188C21.4093 58.188 21.3333 58.156 21.2693 58.092C21.2133 58.036 21.1853 57.956 21.1853 57.852V57.12C20.5293 57.088 19.9493 56.92 19.4453 56.616C18.9413 56.312 18.5813 55.908 18.3653 55.404C18.3093 55.276 18.3053 55.16 18.3533 55.056C18.4093 54.944 18.5053 54.872 18.6413 54.84C18.7453 54.808 18.8453 54.82 18.9413 54.876C19.0453 54.924 19.1213 55.004 19.1693 55.116C19.3133 55.436 19.5653 55.7 19.9253 55.908C20.2853 56.108 20.7053 56.224 21.1853 56.256V52.56C20.4093 52.424 19.7933 52.132 19.3373 51.684C18.8813 51.236 18.6533 50.68 18.6533 50.016C18.6533 49.568 18.7613 49.18 18.9773 48.852C19.2013 48.516 19.5013 48.252 19.8773 48.06C20.2613 47.868 20.6973 47.752 21.1853 47.712V47.136C21.1853 47.024 21.2133 46.94 21.2693 46.884C21.3333 46.828 21.4093 46.8 21.4973 46.8C21.5773 46.8 21.6453 46.828 21.7013 46.884C21.7653 46.94 21.7973 47.024 21.7973 47.136V47.712C22.3653 47.752 22.8493 47.912 23.2493 48.192C23.6573 48.472 23.9653 48.8 24.1733 49.176C24.2453 49.304 24.2693 49.428 24.2453 49.548C24.2293 49.66 24.1653 49.744 24.0533 49.8C23.9573 49.864 23.8493 49.876 23.7293 49.836C23.6173 49.796 23.5293 49.724 23.4653 49.62C23.3213 49.364 23.1173 49.136 22.8533 48.936C22.5893 48.728 22.2373 48.604 21.7973 48.564V51.864C22.6453 52.016 23.2933 52.32 23.7413 52.776C24.1973 53.232 24.4253 53.816 24.4253 54.528C24.4253 55.04 24.3093 55.48 24.0773 55.848C23.8453 56.216 23.5293 56.508 23.1293 56.724C22.7373 56.932 22.2933 57.06 21.7973 57.108V57.852C21.7973 57.956 21.7653 58.036 21.7013 58.092C21.6453 58.156 21.5773 58.188 21.4973 58.188ZM19.5533 50.04C19.5533 50.28 19.6013 50.512 19.6973 50.736C19.7933 50.96 19.9573 51.16 20.1893 51.336C20.4293 51.512 20.7613 51.652 21.1853 51.756V48.564C20.6893 48.604 20.2933 48.748 19.9973 48.996C19.7013 49.236 19.5533 49.584 19.5533 50.04ZM23.5013 54.552C23.5093 54.104 23.3733 53.712 23.0933 53.376C22.8133 53.04 22.3813 52.804 21.7973 52.668V56.244C22.3013 56.18 22.7093 56.004 23.0213 55.716C23.3413 55.428 23.5013 55.04 23.5013 54.552ZM26.2692 57C26.1412 57 26.0292 56.956 25.9332 56.868C25.8452 56.78 25.8012 56.668 25.8012 56.532C25.8012 56.412 25.8452 56.304 25.9332 56.208L29.5692 51.912C29.7692 51.696 29.9292 51.456 30.0492 51.192C30.1692 50.92 30.2292 50.668 30.2292 50.436C30.2292 49.876 30.0652 49.416 29.7372 49.056C29.4092 48.696 28.9852 48.516 28.4652 48.516C28.1292 48.516 27.8212 48.604 27.5412 48.78C27.2692 48.948 27.0532 49.176 26.8932 49.464C26.7412 49.752 26.6652 50.076 26.6652 50.436C26.6652 50.564 26.6212 50.672 26.5332 50.76C26.4452 50.848 26.3332 50.892 26.1972 50.892C26.0692 50.892 25.9572 50.848 25.8612 50.76C25.7732 50.672 25.7292 50.564 25.7292 50.436C25.7292 49.9 25.8492 49.42 26.0892 48.996C26.3292 48.572 26.6532 48.236 27.0612 47.988C27.4772 47.74 27.9452 47.616 28.4652 47.616C28.9852 47.616 29.4452 47.736 29.8452 47.976C30.2532 48.216 30.5692 48.548 30.7932 48.972C31.0252 49.396 31.1412 49.884 31.1412 50.436C31.1412 50.828 31.0452 51.2 30.8532 51.552C30.6692 51.896 30.4532 52.212 30.2052 52.5L27.1332 56.064H30.8892C31.0172 56.064 31.1252 56.112 31.2132 56.208C31.3092 56.304 31.3572 56.412 31.3572 56.532C31.3572 56.668 31.3092 56.78 31.2132 56.868C31.1252 56.956 31.0172 57 30.8892 57H26.2692ZM35.7379 57C35.1619 57 34.6459 56.868 34.1899 56.604C33.7339 56.332 33.3699 55.968 33.0979 55.512C32.8339 55.048 32.7019 54.528 32.7019 53.952C32.7019 53.816 32.7459 53.704 32.8339 53.616C32.9219 53.528 33.0299 53.484 33.1579 53.484C33.2939 53.484 33.4059 53.528 33.4939 53.616C33.5899 53.704 33.6379 53.816 33.6379 53.952C33.6379 54.352 33.7299 54.712 33.9139 55.032C34.0979 55.352 34.3459 55.604 34.6579 55.788C34.9779 55.972 35.3379 56.064 35.7379 56.064C36.1379 56.064 36.4979 55.972 36.8179 55.788C37.1379 55.604 37.3899 55.352 37.5739 55.032C37.7579 54.712 37.8499 54.352 37.8499 53.952C37.8499 53.552 37.7579 53.192 37.5739 52.872C37.3899 52.552 37.1379 52.3 36.8179 52.116C36.4979 51.932 36.1379 51.84 35.7379 51.84H33.6379C33.5019 51.84 33.3899 51.796 33.3019 51.708C33.2139 51.612 33.1699 51.5 33.1699 51.372V48.084C33.1699 47.956 33.2139 47.848 33.3019 47.76C33.3899 47.664 33.5019 47.616 33.6379 47.616H37.8499C37.9779 47.616 38.0859 47.664 38.1739 47.76C38.2699 47.848 38.3179 47.956 38.3179 48.084C38.3179 48.212 38.2739 48.324 38.1859 48.42C38.0979 48.508 37.9859 48.552 37.8499 48.552H34.0939V50.904H35.7379C36.3219 50.904 36.8419 51.04 37.2979 51.312C37.7539 51.576 38.1139 51.94 38.3779 52.404C38.6499 52.86 38.7859 53.376 38.7859 53.952C38.7859 54.528 38.6499 55.048 38.3779 55.512C38.1139 55.968 37.7539 56.332 37.2979 56.604C36.8419 56.868 36.3219 57 35.7379 57ZM42.8653 57C41.9693 57 41.2733 56.584 40.7773 55.752C40.2893 54.92 40.0453 53.768 40.0453 52.296C40.0453 51.328 40.1533 50.492 40.3693 49.788C40.5933 49.084 40.9173 48.544 41.3413 48.168C41.7653 47.792 42.2733 47.604 42.8653 47.604C43.4733 47.604 43.9853 47.796 44.4013 48.18C44.8253 48.556 45.1453 49.096 45.3613 49.8C45.5853 50.504 45.6973 51.336 45.6973 52.296C45.6973 53.272 45.5853 54.112 45.3613 54.816C45.1453 55.512 44.8253 56.052 44.4013 56.436C43.9853 56.812 43.4733 57 42.8653 57ZM42.8653 56.064C43.2973 56.064 43.6533 55.904 43.9333 55.584C44.2133 55.256 44.4213 54.808 44.5573 54.24C44.6933 53.672 44.7613 53.024 44.7613 52.296C44.7613 51.576 44.6893 50.936 44.5453 50.376C44.4093 49.808 44.2013 49.36 43.9213 49.032C43.6413 48.704 43.2893 48.54 42.8653 48.54C42.4413 48.54 42.0893 48.704 41.8093 49.032C41.5373 49.352 41.3293 49.796 41.1853 50.364C41.0493 50.932 40.9813 51.576 40.9813 52.296C40.9813 53.032 41.0493 53.684 41.1853 54.252C41.3293 54.812 41.5373 55.256 41.8093 55.584C42.0893 55.904 42.4413 56.064 42.8653 56.064Z" fill="#424242"/>
<path d="M4.932 26.192C4.204 26.192 3.556 26.052 2.988 25.772C2.428 25.492 1.988 25.104 1.668 24.608C1.356 24.112 1.2 23.544 1.2 22.904V17.096C1.2 16.96 1.244 16.848 1.332 16.76C1.42 16.672 1.532 16.628 1.668 16.628C1.804 16.628 1.916 16.672 2.004 16.76C2.092 16.848 2.136 16.96 2.136 17.096V22.904C2.136 23.376 2.252 23.792 2.484 24.152C2.724 24.512 3.056 24.796 3.48 25.004C3.904 25.204 4.388 25.304 4.932 25.304C5.468 25.304 5.944 25.204 6.36 25.004C6.776 24.796 7.1 24.512 7.332 24.152C7.572 23.792 7.692 23.376 7.692 22.904V17.096C7.692 16.96 7.736 16.848 7.824 16.76C7.912 16.672 8.024 16.628 8.16 16.628C8.304 16.628 8.416 16.672 8.496 16.76C8.584 16.848 8.628 16.96 8.628 17.096V22.904C8.628 23.544 8.468 24.112 8.148 24.608C7.836 25.104 7.4 25.492 6.84 25.772C6.288 26.052 5.652 26.192 4.932 26.192ZM13.912 26.12C13.144 26.12 12.464 25.956 11.872 25.628C11.288 25.3 10.872 24.864 10.624 24.32C10.56 24.192 10.556 24.076 10.612 23.972C10.676 23.86 10.78 23.784 10.924 23.744C11.036 23.712 11.144 23.724 11.248 23.78C11.36 23.836 11.444 23.92 11.5 24.032C11.684 24.384 11.988 24.672 12.412 24.896C12.836 25.12 13.336 25.232 13.912 25.232C14.544 25.232 15.064 25.08 15.472 24.776C15.888 24.464 16.096 24.016 16.096 23.432C16.096 22.944 15.916 22.524 15.556 22.172C15.196 21.82 14.632 21.596 13.864 21.5C12.928 21.388 12.196 21.1 11.668 20.636C11.14 20.164 10.876 19.588 10.876 18.908C10.876 18.42 11.004 17.996 11.26 17.636C11.524 17.276 11.884 17 12.34 16.808C12.796 16.608 13.32 16.508 13.912 16.508C14.576 16.508 15.144 16.66 15.616 16.964C16.088 17.26 16.452 17.612 16.708 18.02C16.788 18.148 16.812 18.272 16.78 18.392C16.756 18.512 16.688 18.604 16.576 18.668C16.456 18.724 16.332 18.732 16.204 18.692C16.084 18.652 15.992 18.576 15.928 18.464C15.744 18.184 15.492 17.94 15.172 17.732C14.86 17.516 14.436 17.404 13.9 17.396C13.268 17.396 12.76 17.532 12.376 17.804C11.992 18.068 11.8 18.456 11.8 18.968C11.8 19.376 11.964 19.732 12.292 20.036C12.628 20.34 13.22 20.552 14.068 20.672C15.068 20.816 15.808 21.124 16.288 21.596C16.776 22.06 17.02 22.668 17.02 23.42C17.02 23.996 16.88 24.488 16.6 24.896C16.328 25.296 15.956 25.6 15.484 25.808C15.012 26.016 14.488 26.12 13.912 26.12ZM21.4973 27.188C21.4093 27.188 21.3333 27.156 21.2693 27.092C21.2133 27.036 21.1853 26.956 21.1853 26.852V26.12C20.5293 26.088 19.9493 25.92 19.4453 25.616C18.9413 25.312 18.5813 24.908 18.3653 24.404C18.3093 24.276 18.3053 24.16 18.3533 24.056C18.4093 23.944 18.5053 23.872 18.6413 23.84C18.7453 23.808 18.8453 23.82 18.9413 23.876C19.0453 23.924 19.1213 24.004 19.1693 24.116C19.3133 24.436 19.5653 24.7 19.9253 24.908C20.2853 25.108 20.7053 25.224 21.1853 25.256V21.56C20.4093 21.424 19.7933 21.132 19.3373 20.684C18.8813 20.236 18.6533 19.68 18.6533 19.016C18.6533 18.568 18.7613 18.18 18.9773 17.852C19.2013 17.516 19.5013 17.252 19.8773 17.06C20.2613 16.868 20.6973 16.752 21.1853 16.712V16.136C21.1853 16.024 21.2133 15.94 21.2693 15.884C21.3333 15.828 21.4093 15.8 21.4973 15.8C21.5773 15.8 21.6453 15.828 21.7013 15.884C21.7653 15.94 21.7973 16.024 21.7973 16.136V16.712C22.3653 16.752 22.8493 16.912 23.2493 17.192C23.6573 17.472 23.9653 17.8 24.1733 18.176C24.2453 18.304 24.2693 18.428 24.2453 18.548C24.2293 18.66 24.1653 18.744 24.0533 18.8C23.9573 18.864 23.8493 18.876 23.7293 18.836C23.6173 18.796 23.5293 18.724 23.4653 18.62C23.3213 18.364 23.1173 18.136 22.8533 17.936C22.5893 17.728 22.2373 17.604 21.7973 17.564V20.864C22.6453 21.016 23.2933 21.32 23.7413 21.776C24.1973 22.232 24.4253 22.816 24.4253 23.528C24.4253 24.04 24.3093 24.48 24.0773 24.848C23.8453 25.216 23.5293 25.508 23.1293 25.724C22.7373 25.932 22.2933 26.06 21.7973 26.108V26.852C21.7973 26.956 21.7653 27.036 21.7013 27.092C21.6453 27.156 21.5773 27.188 21.4973 27.188ZM19.5533 19.04C19.5533 19.28 19.6013 19.512 19.6973 19.736C19.7933 19.96 19.9573 20.16 20.1893 20.336C20.4293 20.512 20.7613 20.652 21.1853 20.756V17.564C20.6893 17.604 20.2933 17.748 19.9973 17.996C19.7013 18.236 19.5533 18.584 19.5533 19.04ZM23.5013 23.552C23.5093 23.104 23.3733 22.712 23.0933 22.376C22.8133 22.04 22.3813 21.804 21.7973 21.668V25.244C22.3013 25.18 22.7093 25.004 23.0213 24.716C23.3413 24.428 23.5013 24.04 23.5013 23.552ZM28.5492 26.06C27.9892 26.06 27.4852 25.94 27.0372 25.7C26.5972 25.452 26.2492 25.116 25.9932 24.692C25.7372 24.268 25.6092 23.788 25.6092 23.252C25.6092 23.116 25.6492 23 25.7292 22.904C25.8092 22.808 25.9172 22.76 26.0532 22.76C26.1892 22.76 26.2972 22.808 26.3772 22.904C26.4572 23 26.4972 23.116 26.4972 23.252C26.4972 23.62 26.5852 23.952 26.7612 24.248C26.9372 24.536 27.1772 24.768 27.4812 24.944C27.7932 25.112 28.1372 25.196 28.5132 25.196C29.1372 25.196 29.6252 25.024 29.9772 24.68C30.3292 24.328 30.5052 23.876 30.5052 23.324C30.5052 22.932 30.4212 22.592 30.2532 22.304C30.0852 22.008 29.8572 21.78 29.5692 21.62C29.2812 21.452 28.9572 21.368 28.5972 21.368C28.4692 21.368 28.3612 21.324 28.2732 21.236C28.1852 21.148 28.1412 21.036 28.1412 20.9C28.1412 20.772 28.1852 20.664 28.2732 20.576C28.3612 20.488 28.4692 20.444 28.5972 20.444C28.8772 20.444 29.1332 20.376 29.3652 20.24C29.6052 20.096 29.7972 19.908 29.9412 19.676C30.0852 19.444 30.1572 19.188 30.1572 18.908C30.1572 18.484 30.0132 18.132 29.7252 17.852C29.4372 17.564 29.0532 17.42 28.5732 17.42C28.0692 17.42 27.6532 17.564 27.3252 17.852C26.9972 18.132 26.8332 18.48 26.8332 18.896C26.8332 19.032 26.7892 19.148 26.7012 19.244C26.6212 19.332 26.5172 19.376 26.3892 19.376C26.2532 19.376 26.1452 19.332 26.0652 19.244C25.9852 19.148 25.9452 19.036 25.9452 18.908C25.9452 18.468 26.0572 18.072 26.2812 17.72C26.5132 17.36 26.8252 17.08 27.2172 16.88C27.6092 16.672 28.0612 16.568 28.5732 16.568C29.0372 16.568 29.4532 16.672 29.8212 16.88C30.1972 17.08 30.4932 17.36 30.7092 17.72C30.9332 18.072 31.0452 18.468 31.0452 18.908C31.0452 19.18 30.9772 19.444 30.8412 19.7C30.7132 19.956 30.5412 20.188 30.3252 20.396C30.1092 20.596 29.8732 20.752 29.6172 20.864C30.2332 21.048 30.6892 21.368 30.9852 21.824C31.2812 22.28 31.4292 22.78 31.4292 23.324C31.4292 23.852 31.3012 24.324 31.0452 24.74C30.7972 25.148 30.4532 25.472 30.0132 25.712C29.5732 25.944 29.0852 26.06 28.5492 26.06ZM35.3888 26C34.4928 26 33.7968 25.584 33.3008 24.752C32.8128 23.92 32.5688 22.768 32.5688 21.296C32.5688 20.328 32.6768 19.492 32.8928 18.788C33.1168 18.084 33.4408 17.544 33.8648 17.168C34.2888 16.792 34.7968 16.604 35.3888 16.604C35.9968 16.604 36.5088 16.796 36.9248 17.18C37.3488 17.556 37.6688 18.096 37.8848 18.8C38.1088 19.504 38.2208 20.336 38.2208 21.296C38.2208 22.272 38.1088 23.112 37.8848 23.816C37.6688 24.512 37.3488 25.052 36.9248 25.436C36.5088 25.812 35.9968 26 35.3888 26ZM35.3888 25.064C35.8208 25.064 36.1768 24.904 36.4568 24.584C36.7368 24.256 36.9448 23.808 37.0808 23.24C37.2168 22.672 37.2848 22.024 37.2848 21.296C37.2848 20.576 37.2128 19.936 37.0688 19.376C36.9328 18.808 36.7248 18.36 36.4448 18.032C36.1648 17.704 35.8128 17.54 35.3888 17.54C34.9648 17.54 34.6128 17.704 34.3328 18.032C34.0608 18.352 33.8528 18.796 33.7088 19.364C33.5728 19.932 33.5048 20.576 33.5048 21.296C33.5048 22.032 33.5728 22.684 33.7088 23.252C33.8528 23.812 34.0608 24.256 34.3328 24.584C34.6128 24.904 34.9648 25.064 35.3888 25.064ZM42.2442 26C41.3482 26 40.6522 25.584 40.1562 24.752C39.6682 23.92 39.4242 22.768 39.4242 21.296C39.4242 20.328 39.5322 19.492 39.7482 18.788C39.9722 18.084 40.2962 17.544 40.7202 17.168C41.1442 16.792 41.6522 16.604 42.2442 16.604C42.8522 16.604 43.3642 16.796 43.7802 17.18C44.2042 17.556 44.5242 18.096 44.7402 18.8C44.9642 19.504 45.0762 20.336 45.0762 21.296C45.0762 22.272 44.9642 23.112 44.7402 23.816C44.5242 24.512 44.2042 25.052 43.7802 25.436C43.3642 25.812 42.8522 26 42.2442 26ZM42.2442 25.064C42.6762 25.064 43.0322 24.904 43.3122 24.584C43.5922 24.256 43.8002 23.808 43.9362 23.24C44.0722 22.672 44.1402 22.024 44.1402 21.296C44.1402 20.576 44.0682 19.936 43.9242 19.376C43.7882 18.808 43.5802 18.36 43.3002 18.032C43.0202 17.704 42.6682 17.54 42.2442 17.54C41.8202 17.54 41.4682 17.704 41.1882 18.032C40.9162 18.352 40.7082 18.796 40.5642 19.364C40.4282 19.932 40.3602 20.576 40.3602 21.296C40.3602 22.032 40.4282 22.684 40.5642 23.252C40.7082 23.812 40.9162 24.256 41.1882 24.584C41.4682 24.904 41.8202 25.064 42.2442 25.064Z" fill="#424242"/>
<line x1="62.5" y1="-2.18557e-08" x2="62.5" y2="206" stroke="#A5A5A5"/>
<line x1="420" y1="206.5" x2="62" y2="206.5" stroke="#A5A5A5"/>
<line x1="64" y1="175.5" x2="61" y2="175.5" stroke="black"/>
<line x1="122.5" y1="208" x2="122.5" y2="205" stroke="black"/>
<line x1="183.5" y1="208" x2="183.5" y2="205" stroke="black"/>
<line x1="244.5" y1="208" x2="244.5" y2="205" stroke="black"/>
<line x1="305.5" y1="208" x2="305.5" y2="205" stroke="black"/>
<line x1="366.5" y1="208" x2="366.5" y2="205" stroke="black"/>
<line x1="420" y1="175.5" x2="64" y2="175.5" stroke="#EDEDED"/>
<line x1="420" y1="144.5" x2="64" y2="144.5" stroke="#EDEDED"/>
<line x1="420" y1="113.5" x2="64" y2="113.5" stroke="#EDEDED"/>
<line x1="420" y1="82.5" x2="64" y2="82.5" stroke="#EDEDED"/>
<line x1="420" y1="51.5" x2="64" y2="51.5" stroke="#EDEDED"/>
<line x1="420" y1="20.5" x2="64" y2="20.5" stroke="#EDEDED"/>
<line x1="64" y1="144.5" x2="61" y2="144.5" stroke="black"/>
<line x1="64" y1="113.5" x2="61" y2="113.5" stroke="black"/>
<line x1="64" y1="82.5" x2="61" y2="82.5" stroke="black"/>
<line x1="64" y1="51.5" x2="61" y2="51.5" stroke="black"/>
<line x1="64" y1="20.5" x2="61" y2="20.5" stroke="black"/>
<path d="M96 181.5L150.5 169L210 160L276 156L334 151L396.5 146.5" stroke="#FF6D6D"/>
<circle cx="150" cy="169" r="2" fill="#FF6D6D"/>
<circle cx="96" cy="182" r="2" fill="#FF6D6D"/>
<circle cx="210" cy="160" r="2" fill="#FF6D6D"/>
<circle cx="273" cy="156" r="2" fill="#FF6D6D"/>
<circle cx="331" cy="151" r="2" fill="#FF6D6D"/>
<circle cx="396" cy="146" r="2" fill="#FF6D6D"/>
<path d="M97 150L148.5 153L210 155.5L272.5 153L331.5 150L396 155.5" stroke="#59BAE3"/>
<circle cx="98" cy="150" r="2" fill="#59BAE3"/>
<circle cx="150" cy="153" r="2" fill="#59BAE3"/>
<circle cx="210" cy="155" r="2" fill="#59BAE3"/>
<circle cx="273" cy="153" r="2" fill="#59BAE3"/>
<circle cx="331" cy="150" r="2" fill="#59BAE3"/>
<circle cx="396" cy="156" r="2" fill="#59BAE3"/>
<path d="M96.5 83L148.5 89L209 86L271 84.8927H329.5L393.5 83.5" stroke="#99ED66"/>
<circle cx="98" cy="83" r="2" fill="#99ED66"/>
<circle cx="148" cy="89" r="2" fill="#99ED66"/>
<circle cx="210" cy="86" r="2" fill="#99ED66"/>
<circle cx="273" cy="85" r="2" fill="#99ED66"/>
<circle cx="331" cy="85" r="2" fill="#99ED66"/>
<circle cx="394" cy="83" r="2" fill="#99ED66"/>
<path d="M94.5 56L147 66H209L271 64.8927H329.5L393.5 63.5" stroke="#EE0E0E"/>
<circle cx="95" cy="56" r="2" fill="#EE0E0E"/>
<circle cx="147" cy="66" r="2" fill="#EE0E0E"/>
<circle cx="210" cy="66" r="2" fill="#EE0E0E"/>
<circle cx="273" cy="65" r="2" fill="#EE0E0E"/>
<circle cx="331" cy="65" r="2" fill="#EE0E0E"/>
<circle cx="394" cy="63" r="2" fill="#EE0E0E"/>
</svg>
